  0
SECTION
  2
HEADER
  9
$ACADVER
  1
AC1027
  9
$ACADMAINTVER
 70
105
  9
$DWGCODEPAGE
  3
ANSI_1252
  9
$LASTSAVEDBY
  1
ezdxf
  9
$REQUIREDVERSIONS
160
0
  9
$INSBASE
 10
0.0
 20
0.0
 30
0.0
  9
$EXTMIN
 10
1e+20
 20
1e+20
 30
1e+20
  9
$EXTMAX
 10
-1e+20
 20
-1e+20
 30
-1e+20
  9
$LIMMIN
 10
0.0
 20
0.0
  9
$LIMMAX
 10
420.0
 20
297.0
  9
$ORTHOMODE
 70
0
  9
$REGENMODE
 70
1
  9
$FILLMODE
 70
1
  9
$QTEXTMODE
 70
0
  9
$MIRRTEXT
 70
1
  9
$LTSCALE
 40
1.0
  9
$ATTMODE
 70
1
  9
$TEXTSIZE
 40
2.5
  9
$TRACEWID
 40
1.0
  9
$TEXTSTYLE
  7
Standard
  9
$CLAYER
  8
0
  9
$CELTYPE
  6
ByLayer
  9
$CECOLOR
 62
256
  9
$CELTSCALE
 40
1.0
  9
$DISPSILH
 70
0
  9
$DIMSCALE
 40
1.0
  9
$DIMASZ
 40
1.0
  9
$DIMEXO
 40
0.625
  9
$DIMDLI
 40
3.75
  9
$DIMRND
 40
0.0
  9
$DIMDLE
 40
0.0
  9
$DIMEXE
 40
1.25
  9
$DIMTP
 40
0.0
  9
$DIMTM
 40
0.0
  9
$DIMTXT
 40
1.0
  9
$DIMCEN
 40
2.5
  9
$DIMTSZ
 40
0.0
  9
$DIMTOL
 70
0
  9
$DIMLIM
 70
0
  9
$DIMTIH
 70
0
  9
$DIMTOH
 70
0
  9
$DIMSE1
 70
0
  9
$DIMSE2
 70
0
  9
$DIMTAD
 70
1
  9
$DIMZIN
 70
8
  9
$DIMBLK
  1

  9
$DIMASO
 70
1
  9
$DIMSHO
 70
1
  9
$DIMPOST
  1

  9
$DIMAPOST
  1

  9
$DIMALT
 70
0
  9
$DIMALTD
 70
3
  9
$DIMALTF
 40
0.03937007874
  9
$DIMLFAC
 40
1.0
  9
$DIMTOFL
 70
1
  9
$DIMTVP
 40
0.0
  9
$DIMTIX
 70
0
  9
$DIMSOXD
 70
0
  9
$DIMSAH
 70
0
  9
$DIMBLK1
  1

  9
$DIMBLK2
  1

  9
$DIMSTYLE
  2
ISO-25
  9
$DIMCLRD
 70
6
  9
$DIMCLRE
 70
2
  9
$DIMCLRT
 70
3
  9
$DIMTFAC
 40
1.0
  9
$DIMGAP
 40
0.625
  9
$DIMJUST
 70
0
  9
$DIMSD1
 70
0
  9
$DIMSD2
 70
0
  9
$DIMTOLJ
 70
0
  9
$DIMTZIN
 70
8
  9
$DIMALTZ
 70
0
  9
$DIMALTTZ
 70
0
  9
$DIMUPT
 70
0
  9
$DIMDEC
 70
2
  9
$DIMTDEC
 70
2
  9
$DIMALTU
 70
2
  9
$DIMALTTD
 70
3
  9
$DIMTXSTY
  7
Standard
  9
$DIMAUNIT
 70
0
  9
$DIMADEC
 70
0
  9
$DIMALTRND
 40
0.0
  9
$DIMAZIN
 70
0
  9
$DIMDSEP
 70
44
  9
$DIMATFIT
 70
3
  9
$DIMFRAC
 70
0
  9
$DIMLDRBLK
  1

  9
$DIMLUNIT
 70
2
  9
$DIMLWD
 70
-2
  9
$DIMLWE
 70
-2
  9
$DIMTMOVE
 70
0
  9
$DIMFXL
 40
1.0
  9
$DIMFXLON
 70
0
  9
$DIMJOGANG
 40
0.785398163397
  9
$DIMTFILL
 70
0
  9
$DIMTFILLCLR
 70
0
  9
$DIMARCSYM
 70
0
  9
$DIMLTYPE
  6

  9
$DIMLTEX1
  6

  9
$DIMLTEX2
  6

  9
$DIMTXTDIRECTION
 70
0
  9
$LUNITS
 70
2
  9
$LUPREC
 70
4
  9
$SKETCHINC
 40
1.0
  9
$FILLETRAD
 40
10.0
  9
$AUNITS
 70
0
  9
$AUPREC
 70
2
  9
$MENU
  1
.
  9
$ELEVATION
 40
0.0
  9
$PELEVATION
 40
0.0
  9
$THICKNESS
 40
0.0
  9
$LIMCHECK
 70
0
  9
$CHAMFERA
 40
0.0
  9
$CHAMFERB
 40
0.0
  9
$CHAMFERC
 40
0.0
  9
$CHAMFERD
 40
0.0
  9
$SKPOLY
 70
0
  9
$TDCREATE
 40
2461138.0062152776
  9
$TDUCREATE
 40
2458532.153996898
  9
$TDUPDATE
 40
2461138.0062152776
  9
$TDUUPDATE
 40
2458532.1544311
  9
$TDINDWG
 40
0.0
  9
$TDUSRTIMER
 40
0.0
  9
$USRTIMER
 70
1
  9
$ANGBASE
 50
0.0
  9
$ANGDIR
 70
0
  9
$PDMODE
 70
0
  9
$PDSIZE
 40
0.0
  9
$PLINEWID
 40
0.0
  9
$SPLFRAME
 70
0
  9
$SPLINETYPE
 70
6
  9
$SPLINESEGS
 70
8
  9
$HANDSEED
  5
FA
  9
$SURFTAB1
 70
6
  9
$SURFTAB2
 70
6
  9
$SURFTYPE
 70
6
  9
$SURFU
 70
6
  9
$SURFV
 70
6
  9
$UCSBASE
  2

  9
$UCSNAME
  2

  9
$UCSORG
 10
0.0
 20
0.0
 30
0.0
  9
$UCSXDIR
 10
1.0
 20
0.0
 30
0.0
  9
$UCSYDIR
 10
0.0
 20
1.0
 30
0.0
  9
$UCSORTHOREF
  2

  9
$UCSORTHOVIEW
 70
0
  9
$UCSORGTOP
 10
0.0
 20
0.0
 30
0.0
  9
$UCSORGBOTTOM
 10
0.0
 20
0.0
 30
0.0
  9
$UCSORGLEFT
 10
0.0
 20
0.0
 30
0.0
  9
$UCSORGRIGHT
 10
0.0
 20
0.0
 30
0.0
  9
$UCSORGFRONT
 10
0.0
 20
0.0
 30
0.0
  9
$UCSORGBACK
 10
0.0
 20
0.0
 30
0.0
  9
$PUCSBASE
  2

  9
$PUCSNAME
  2

  9
$PUCSORG
 10
0.0
 20
0.0
 30
0.0
  9
$PUCSXDIR
 10
1.0
 20
0.0
 30
0.0
  9
$PUCSYDIR
 10
0.0
 20
1.0
 30
0.0
  9
$PUCSORTHOREF
  2

  9
$PUCSORTHOVIEW
 70
0
  9
$PUCSORGTOP
 10
0.0
 20
0.0
 30
0.0
  9
$PUCSORGBOTTOM
 10
0.0
 20
0.0
 30
0.0
  9
$PUCSORGLEFT
 10
0.0
 20
0.0
 30
0.0
  9
$PUCSORGRIGHT
 10
0.0
 20
0.0
 30
0.0
  9
$PUCSORGFRONT
 10
0.0
 20
0.0
 30
0.0
  9
$PUCSORGBACK
 10
0.0
 20
0.0
 30
0.0
  9
$USERI1
 70
0
  9
$USERI2
 70
0
  9
$USERI3
 70
0
  9
$USERI4
 70
0
  9
$USERI5
 70
0
  9
$USERR1
 40
0.0
  9
$USERR2
 40
0.0
  9
$USERR3
 40
0.0
  9
$USERR4
 40
0.0
  9
$USERR5
 40
0.0
  9
$WORLDVIEW
 70
1
  9
$SHADEDGE
 70
3
  9
$SHADEDIF
 70
70
  9
$TILEMODE
 70
1
  9
$MAXACTVP
 70
64
  9
$PINSBASE
 10
0.0
 20
0.0
 30
0.0
  9
$PLIMCHECK
 70
0
  9
$PEXTMIN
 10
1e+20
 20
1e+20
 30
1e+20
  9
$PEXTMAX
 10
-1e+20
 20
-1e+20
 30
-1e+20
  9
$PLIMMIN
 10
0.0
 20
0.0
  9
$PLIMMAX
 10
420.0
 20
297.0
  9
$UNITMODE
 70
0
  9
$VISRETAIN
 70
1
  9
$PLINEGEN
 70
0
  9
$PSLTSCALE
 70
1
  9
$TREEDEPTH
 70
3020
  9
$CMLSTYLE
  2
Standard
  9
$CMLJUST
 70
0
  9
$CMLSCALE
 40
20.0
  9
$PROXYGRAPHICS
 70
1
  9
$MEASUREMENT
 70
1
  9
$CELWEIGHT
370
-1
  9
$ENDCAPS
280
0
  9
$JOINSTYLE
280
0
  9
$LWDISPLAY
290
0
  9
$INSUNITS
 70
6
  9
$HYPERLINKBASE
  1

  9
$STYLESHEET
  1

  9
$XEDIT
290
1
  9
$CEPSNTYPE
380
0
  9
$PSTYLEMODE
290
1
  9
$FINGERPRINTGUID
  2
{B6D54C2E-1409-47F4-9A2A-6F48281BF0FC}
  9
$VERSIONGUID
  2
{726C287A-483D-4E92-82AD-F3D7006BDA54}
  9
$EXTNAMES
290
1
  9
$PSVPSCALE
 40
0.0
  9
$OLESTARTUP
290
0
  9
$SORTENTS
280
127
  9
$INDEXCTL
280
0
  9
$HIDETEXT
280
1
  9
$XCLIPFRAME
280
1
  9
$HALOGAP
280
0
  9
$OBSCOLOR
 70
257
  9
$OBSLTYPE
280
0
  9
$INTERSECTIONDISPLAY
280
0
  9
$INTERSECTIONCOLOR
 70
257
  9
$DIMASSOC
280
2
  9
$PROJECTNAME
  1

  9
$CAMERADISPLAY
290
0
  9
$LENSLENGTH
 40
50.0
  9
$CAMERAHEIGHT
 40
0.0
  9
$STEPSPERSEC
 40
24.0
  9
$STEPSIZE
 40
100.0
  9
$3DDWFPREC
 40
2.0
  9
$PSOLWIDTH
 40
0.005
  9
$PSOLHEIGHT
 40
0.08
  9
$LOFTANG1
 40
1.570796326795
  9
$LOFTANG2
 40
1.570796326795
  9
$LOFTMAG1
 40
0.0
  9
$LOFTMAG2
 40
0.0
  9
$LOFTPARAM
 70
7
  9
$LOFTNORMALS
280
1
  9
$LATITUDE
 40
37.795
  9
$LONGITUDE
 40
-122.394
  9
$NORTHDIRECTION
 40
0.0
  9
$TIMEZONE
 70
-8000
  9
$LIGHTGLYPHDISPLAY
280
1
  9
$TILEMODELIGHTSYNCH
280
1
  9
$CMATERIAL
347
20
  9
$SOLIDHIST
280
0
  9
$SHOWHIST
280
1
  9
$DWFFRAME
280
2
  9
$DGNFRAME
280
2
  9
$REALWORLDSCALE
290
1
  9
$INTERFERECOLOR
 62
256
  9
$CSHADOW
280
0
  9
$SHADOWPLANELOCATION
 40
0.0
  0
ENDSEC
  0
SECTION
  2
CLASSES
  0
CLASS
  1
ACDBDICTIONARYWDFLT
  2
AcDbDictionaryWithDefault
  3
ObjectDBX Classes
 90
0
 91
0
280
0
281
0
  0
CLASS
  1
SUN
  2
AcDbSun
  3
SCENEOE
 90
1153
 91
0
280
0
281
0
  0
CLASS
  1
VISUALSTYLE
  2
AcDbVisualStyle
  3
ObjectDBX Classes
 90
4095
 91
0
280
0
281
0
  0
CLASS
  1
MATERIAL
  2
AcDbMaterial
  3
ObjectDBX Classes
 90
1153
 91
0
280
0
281
0
  0
CLASS
  1
SCALE
  2
AcDbScale
  3
ObjectDBX Classes
 90
1153
 91
0
280
0
281
0
  0
CLASS
  1
TABLESTYLE
  2
AcDbTableStyle
  3
ObjectDBX Classes
 90
4095
 91
0
280
0
281
0
  0
CLASS
  1
MLEADERSTYLE
  2
AcDbMLeaderStyle
  3
ACDB_MLEADERSTYLE_CLASS
 90
4095
 91
0
280
0
281
0
  0
CLASS
  1
DICTIONARYVAR
  2
AcDbDictionaryVar
  3
ObjectDBX Classes
 90
0
 91
0
280
0
281
0
  0
CLASS
  1
CELLSTYLEMAP
  2
AcDbCellStyleMap
  3
ObjectDBX Classes
 90
1152
 91
0
280
0
281
0
  0
CLASS
  1
MENTALRAYRENDERSETTINGS
  2
AcDbMentalRayRenderSettings
  3
SCENEOE
 90
1024
 91
0
280
0
281
0
  0
CLASS
  1
ACDBDETAILVIEWSTYLE
  2
AcDbDetailViewStyle
  3
ObjectDBX Classes
 90
1025
 91
0
280
0
281
0
  0
CLASS
  1
ACDBSECTIONVIEWSTYLE
  2
AcDbSectionViewStyle
  3
ObjectDBX Classes
 90
1025
 91
0
280
0
281
0
  0
CLASS
  1
RASTERVARIABLES
  2
AcDbRasterVariables
  3
ISM
 90
0
 91
0
280
0
281
0
  0
CLASS
  1
LAYOUT
  2
AcDbLayout
  3
ObjectDBX Classes
 90
0
 91
0
280
0
281
0
  0
CLASS
  1
ACDBPLACEHOLDER
  2
AcDbPlaceHolder
  3
ObjectDBX Classes
 90
0
 91
0
280
0
281
0
  0
ENDSEC
  0
SECTION
  2
TABLES
  0
TABLE
  2
VPORT
  5
8
330
0
100
AcDbSymbolTable
 70
1
  0
VPORT
  5
23
330
8
100
AcDbSymbolTableRecord
100
AcDbViewportTableRecord
  2
*Active
 70
0
 10
0.0
 20
0.0
 11
1.0
 21
1.0
 12
367.25514
 22
131.89802
 13
0.0
 23
0.0
 14
0.5
 24
0.5
 15
0.5
 25
0.5
 16
0.0
 26
0.0
 36
1.0
 17
0.0
 27
0.0
 37
0.0
 40
107.10000000000001
 41
1.34
 42
50.0
 43
0.0
 44
0.0
 50
0.0
 51
0.0
 71
0
 72
1000
 73
1
 74
3
 75
0
 76
0
 77
0
 78
0
281
0
 65
0
146
0.0
  0
ENDTAB
  0
TABLE
  2
LTYPE
  5
2
330
0
100
AcDbSymbolTable
 70
3
  0
LTYPE
  5
24
330
2
100
AcDbSymbolTableRecord
100
AcDbLinetypeTableRecord
  2
ByBlock
 70
0
  3

 72
65
 73
0
 40
0.0
  0
LTYPE
  5
25
330
2
100
AcDbSymbolTableRecord
100
AcDbLinetypeTableRecord
  2
ByLayer
 70
0
  3

 72
65
 73
0
 40
0.0
  0
LTYPE
  5
26
330
2
100
AcDbSymbolTableRecord
100
AcDbLinetypeTableRecord
  2
Continuous
 70
0
  3

 72
65
 73
0
 40
0.0
  0
ENDTAB
  0
TABLE
  2
LAYER
  5
1
330
0
100
AcDbSymbolTable
 70
2
  0
LAYER
  5
27
330
1
100
AcDbSymbolTableRecord
100
AcDbLayerTableRecord
  2
0
 70
0
 62
7
  6
Continuous
370
-3
390
13
347
21
  0
LAYER
  5
28
330
1
100
AcDbSymbolTableRecord
100
AcDbLayerTableRecord
  2
Defpoints
 70
0
 62
7
  6
Continuous
290
0
370
-3
390
13
347
21
  0
ENDTAB
  0
TABLE
  2
STYLE
  5
5
330
0
100
AcDbSymbolTable
 70
1
  0
STYLE
  5
29
330
5
100
AcDbSymbolTableRecord
100
AcDbTextStyleTableRecord
  2
Standard
 70
0
 40
0.0
 41
1.0
 50
0.0
 71
0
 42
2.5
  3
txt
  4

  0
ENDTAB
  0
TABLE
  2
VIEW
  5
7
330
0
100
AcDbSymbolTable
 70
0
  0
ENDTAB
  0
TABLE
  2
UCS
  5
6
330
0
100
AcDbSymbolTable
 70
0
  0
ENDTAB
  0
TABLE
  2
APPID
  5
3
330
0
100
AcDbSymbolTable
 70
3
  0
APPID
  5
2A
330
3
100
AcDbSymbolTableRecord
100
AcDbRegAppTableRecord
  2
ACAD
 70
0
  0
APPID
  5
F7
330
3
100
AcDbSymbolTableRecord
100
AcDbRegAppTableRecord
  2
HATCHBACKGROUNDCOLOR
 70
0
  0
APPID
  5
F8
330
3
100
AcDbSymbolTableRecord
100
AcDbRegAppTableRecord
  2
EZDXF
 70
0
  0
ENDTAB
  0
TABLE
  2
DIMSTYLE
  5
4
330
0
100
AcDbSymbolTable
 70
1
100
AcDbDimStyleTable
  0
DIMSTYLE
105
2B
330
4
100
AcDbSymbolTableRecord
100
AcDbDimStyleTableRecord
  2
Standard
 70
0
 40
1.0
 41
2.5
 42
0.625
 43
3.75
 44
1.25
 45
0.0
 46
0.0
 47
0.0
 48
0.0
 49
2.5
140
2.5
141
2.5
142
0.0
143
0.03937007874
144
1.0
145
0.0
146
1.0
147
0.625
148
0.0
 69
0
 70
0
 71
0
 72
0
 73
0
 74
0
 75
0
 76
0
 77
1
 78
8
 79
3
170
0
171
3
172
1
173
0
174
0
175
0
176
0
177
0
178
0
179
2
271
2
272
2
273
2
274
3
275
0
276
0
277
2
278
44
279
0
280
0
281
0
282
0
283
0
284
8
285
0
286
0
288
0
289
3
290
0
371
-2
372
-2
  0
ENDTAB
  0
TABLE
  2
BLOCK_RECORD
  5
9
330
0
100
AcDbSymbolTable
 70
2
  0
BLOCK_RECORD
  5
17
330
9
100
AcDbSymbolTableRecord
100
AcDbBlockTableRecord
  2
*Model_Space
340
1A
 70
0
280
1
281
0
  0
BLOCK_RECORD
  5
1B
330
9
100
AcDbSymbolTableRecord
100
AcDbBlockTableRecord
  2
*Paper_Space
340
1E
 70
0
280
1
281
0
  0
ENDTAB
  0
ENDSEC
  0
SECTION
  2
BLOCKS
  0
BLOCK
  5
18
330
17
100
AcDbEntity
  8
0
100
AcDbBlockBegin
  2
*Model_Space
 70
0
 10
0.0
 20
0.0
 30
0.0
  3
*Model_Space
  1

  0
ENDBLK
  5
19
330
17
100
AcDbEntity
  8
0
100
AcDbBlockEnd
  0
BLOCK
  5
1C
330
1B
100
AcDbEntity
  8
0
100
AcDbBlockBegin
  2
*Paper_Space
 70
0
 10
0.0
 20
0.0
 30
0.0
  3
*Paper_Space
  1

  0
ENDBLK
  5
1D
330
1B
100
AcDbEntity
  8
0
100
AcDbBlockEnd
  0
ENDSEC
  0
SECTION
  2
ENTITIES
  0
HATCH
  5
2F
330
17
100
AcDbEntity
  8
0
 62
4
100
AcDbHatch
 10
0.0
 20
0.0
 30
0.0
210
0.0
220
0.0
230
1.0
  2
SOLID
 70
1
 71
0
 91
1
 92
3
 72
0
 73
1
 93
12
 10
12.0
 20
44.0
 10
52.0
 20
44.0
 10
52.0
 20
46.0
 10
33.0
 20
46.0
 10
33.0
 20
92.0
 10
52.0
 20
92.0
 10
52.0
 20
94.0
 10
12.0
 20
94.0
 10
12.0
 20
92.0
 10
31.0
 20
92.0
 10
31.0
 20
46.0
 10
12.0
 20
46.0
 97
0
 75
1
 76
1
 98
0
  0
MTEXT
  5
30
330
17
100
AcDbEntity
  8
0
 62
2
100
AcDbMText
 10
4.0
 20
36.0
 30
0.0
 40
4.0
 41
98.0
 71
1
  1
Area = 252\PPerim = 256\P\PAncho = 40\PAla = 2\PAlto = 50\PAlma = 2
  7
iso
 44
0.75
  0
DIMENSION
  5
31
330
17
100
AcDbEntity
  8
0
100
AcDbDimension
280
0
  3
Standard
 10
8.0
 20
44.0
 30
0.0
 70
32
 71
5
  1
<> mm
100
AcDbAlignedDimension
 13
12.0
 23
44.0
 33
0.0
 14
12.0
 24
46.0
 34
0.0
 50
90.0
100
AcDbRotatedDimension
  0
DIMENSION
  5
32
330
17
100
AcDbEntity
  8
0
100
AcDbDimension
280
0
  3
Standard
 10
8.0
 20
46.0
 30
0.0
 70
32
 71
5
  1
<> mm
100
AcDbAlignedDimension
 13
12.0
 23
46.0
 33
0.0
 14
12.0
 24
92.0
 34
0.0
 50
90.0
100
AcDbRotatedDimension
  0
DIMENSION
  5
33
330
17
100
AcDbEntity
  8
0
100
AcDbDimension
280
0
  3
Standard
 10
8.0
 20
92.0
 30
0.0
 70
32
 71
5
  1
<> mm
100
AcDbAlignedDimension
 13
12.0
 23
92.0
 33
0.0
 14
12.0
 24
94.0
 34
0.0
 50
90.0
100
AcDbRotatedDimension
  0
DIMENSION
  5
34
330
17
100
AcDbEntity
  8
0
100
AcDbDimension
280
0
  3
Standard
 10
12.0
 20
98.0
 30
0.0
 70
32
 71
5
  1
<> mm
100
AcDbAlignedDimension
 13
12.0
 23
94.0
 33
0.0
 14
31.0
 24
94.0
 34
0.0
 50
0.0
100
AcDbRotatedDimension
  0
DIMENSION
  5
35
330
17
100
AcDbEntity
  8
0
100
AcDbDimension
280
0
  3
Standard
 10
31.0
 20
98.0
 30
0.0
 70
32
 71
5
  1
<> mm
100
AcDbAlignedDimension
 13
31.0
 23
94.0
 33
0.0
 14
33.0
 24
94.0
 34
0.0
 50
0.0
100
AcDbRotatedDimension
  0
DIMENSION
  5
36
330
17
100
AcDbEntity
  8
0
100
AcDbDimension
280
0
  3
Standard
 10
33.0
 20
98.0
 30
0.0
 70
32
 71
5
  1
<> mm
100
AcDbAlignedDimension
 13
33.0
 23
94.0
 33
0.0
 14
52.0
 24
94.0
 34
0.0
 50
0.0
100
AcDbRotatedDimension
  0
DIMENSION
  5
37
330
17
100
AcDbEntity
  8
0
100
AcDbDimension
280
0
  3
Standard
 10
56.0
 20
94.0
 30
0.0
 70
32
 71
5
  1
<> mm
100
AcDbAlignedDimension
 13
52.0
 23
94.0
 33
0.0
 14
52.0
 24
44.0
 34
0.0
 50
-90.0
100
AcDbRotatedDimension
  0
DIMENSION
  5
38
330
17
100
AcDbEntity
  8
0
100
AcDbDimension
280
0
  3
Standard
 10
52.0
 20
40.0
 30
0.0
 70
32
 71
5
  1
<> mm
100
AcDbAlignedDimension
 13
52.0
 23
44.0
 33
0.0
 14
12.0
 24
44.0
 34
0.0
 50
180.0
100
AcDbRotatedDimension
  0
HATCH
  5
39
330
17
100
AcDbEntity
  8
0
 62
4
100
AcDbHatch
 10
0.0
 20
0.0
 30
0.0
210
0.0
220
0.0
230
1.0
  2
SOLID
 70
1
 71
0
 91
2
 92
3
 72
0
 73
1
 93
4
 10
12.0
 20
204.0
 10
52.0
 20
204.0
 10
52.0
 20
254.0
 10
12.0
 20
254.0
 97
0
 92
3
 72
0
 73
1
 93
4
 10
14.0
 20
206.0
 10
50.0
 20
206.0
 10
50.0
 20
252.0
 10
14.0
 20
252.0
 97
0
 75
1
 76
1
 98
0
  0
MTEXT
  5
3A
330
17
100
AcDbEntity
  8
0
 62
2
100
AcDbMText
 10
4.0
 20
196.0
 30
0.0
 40
4.0
 41
98.0
 71
1
  1
Area = 344\PP. ext = 180\PP. int = 164\P\PAncho = 40\PAlto = 50\Pespesor = 2
  7
iso
 44
0.75
  0
DIMENSION
  5
3B
330
17
100
AcDbEntity
  8
0
100
AcDbDimension
280
0
  3
Standard
 10
8.0
 20
204.0
 30
0.0
 70
32
 71
5
  1
<> mm
100
AcDbAlignedDimension
 13
12.0
 23
204.0
 33
0.0
 14
12.0
 24
206.0
 34
0.0
 50
90.0
100
AcDbRotatedDimension
  0
DIMENSION
  5
3C
330
17
100
AcDbEntity
  8
0
100
AcDbDimension
280
0
  3
Standard
 10
8.0
 20
206.0
 30
0.0
 70
32
 71
5
  1
<> mm
100
AcDbAlignedDimension
 13
12.0
 23
206.0
 33
0.0
 14
12.0
 24
252.0
 34
0.0
 50
90.0
100
AcDbRotatedDimension
  0
DIMENSION
  5
3D
330
17
100
AcDbEntity
  8
0
100
AcDbDimension
280
0
  3
Standard
 10
8.0
 20
252.0
 30
0.0
 70
32
 71
5
  1
<> mm
100
AcDbAlignedDimension
 13
12.0
 23
252.0
 33
0.0
 14
12.0
 24
254.0
 34
0.0
 50
90.0
100
AcDbRotatedDimension
  0
DIMENSION
  5
3E
330
17
100
AcDbEntity
  8
0
100
AcDbDimension
280
0
  3
Standard
 10
12.0
 20
258.0
 30
0.0
 70
32
 71
5
  1
<> mm
100
AcDbAlignedDimension
 13
12.0
 23
254.0
 33
0.0
 14
14.0
 24
254.0
 34
0.0
 50
0.0
100
AcDbRotatedDimension
  0
DIMENSION
  5
3F
330
17
100
AcDbEntity
  8
0
100
AcDbDimension
280
0
  3
Standard
 10
14.0
 20
258.0
 30
0.0
 70
32
 71
5
  1
<> mm
100
AcDbAlignedDimension
 13
14.0
 23
254.0
 33
0.0
 14
50.0
 24
254.0
 34
0.0
 50
0.0
100
AcDbRotatedDimension
  0
DIMENSION
  5
40
330
17
100
AcDbEntity
  8
0
100
AcDbDimension
280
0
  3
Standard
 10
50.0
 20
258.0
 30
0.0
 70
32
 71
5
  1
<> mm
100
AcDbAlignedDimension
 13
50.0
 23
254.0
 33
0.0
 14
52.0
 24
254.0
 34
0.0
 50
0.0
100
AcDbRotatedDimension
  0
DIMENSION
  5
41
330
17
100
AcDbEntity
  8
0
100
AcDbDimension
280
0
  3
Standard
 10
56.0
 20
254.0
 30
0.0
 70
32
 71
5
  1
<> mm
100
AcDbAlignedDimension
 13
52.0
 23
254.0
 33
0.0
 14
52.0
 24
204.0
 34
0.0
 50
-90.0
100
AcDbRotatedDimension
  0
DIMENSION
  5
42
330
17
100
AcDbEntity
  8
0
100
AcDbDimension
280
0
  3
Standard
 10
52.0
 20
200.0
 30
0.0
 70
32
 71
5
  1
<> mm
100
AcDbAlignedDimension
 13
52.0
 23
204.0
 33
0.0
 14
12.0
 24
204.0
 34
0.0
 50
180.0
100
AcDbRotatedDimension
  0
HATCH
  5
43
330
17
100
AcDbEntity
  8
0
 62
4
100
AcDbHatch
 10
0.0
 20
0.0
 30
0.0
210
0.0
220
0.0
230
1.0
  2
SOLID
 70
1
 71
0
 91
1
 92
3
 72
0
 73
1
 93
12
 10
77.0
 20
44.0
 10
117.0
 20
44.0
 10
117.0
 20
47.0
 10
98.5
 20
47.0
 10
98.5
 20
91.0
 10
117.0
 20
91.0
 10
117.0
 20
94.0
 10
77.0
 20
94.0
 10
77.0
 20
91.0
 10
95.5
 20
91.0
 10
95.5
 20
47.0
 10
77.0
 20
47.0
 97
0
 75
1
 76
1
 98
0
  0
MTEXT
  5
44
330
17
100
AcDbEntity
  8
0
 62
2
100
AcDbMText
 10
69.0
 20
36.0
 30
0.0
 40
4.0
 41
98.0
 71
1
  1
Area = 372\PPerim = 254\P\PAncho = 40\PAla = 3\PAlto = 50\PAlma = 3
  7
iso
 44
0.75
  0
DIMENSION
  5
45
330
17
100
AcDbEntity
  8
0
100
AcDbDimension
280
0
  3
Standard
 10
73.0
 20
44.0
 30
0.0
 70
32
 71
5
  1
<> mm
100
AcDbAlignedDimension
 13
77.0
 23
44.0
 33
0.0
 14
77.0
 24
47.0
 34
0.0
 50
90.0
100
AcDbRotatedDimension
  0
DIMENSION
  5
46
330
17
100
AcDbEntity
  8
0
100
AcDbDimension
280
0
  3
Standard
 10
73.0
 20
47.0
 30
0.0
 70
32
 71
5
  1
<> mm
100
AcDbAlignedDimension
 13
77.0
 23
47.0
 33
0.0
 14
77.0
 24
91.0
 34
0.0
 50
90.0
100
AcDbRotatedDimension
  0
DIMENSION
  5
47
330
17
100
AcDbEntity
  8
0
100
AcDbDimension
280
0
  3
Standard
 10
73.0
 20
91.0
 30
0.0
 70
32
 71
5
  1
<> mm
100
AcDbAlignedDimension
 13
77.0
 23
91.0
 33
0.0
 14
77.0
 24
94.0
 34
0.0
 50
90.0
100
AcDbRotatedDimension
  0
DIMENSION
  5
48
330
17
100
AcDbEntity
  8
0
100
AcDbDimension
280
0
  3
Standard
 10
77.0
 20
98.0
 30
0.0
 70
32
 71
5
  1
<> mm
100
AcDbAlignedDimension
 13
77.0
 23
94.0
 33
0.0
 14
95.5
 24
94.0
 34
0.0
 50
0.0
100
AcDbRotatedDimension
  0
DIMENSION
  5
49
330
17
100
AcDbEntity
  8
0
100
AcDbDimension
280
0
  3
Standard
 10
95.5
 20
98.0
 30
0.0
 70
32
 71
5
  1
<> mm
100
AcDbAlignedDimension
 13
95.5
 23
94.0
 33
0.0
 14
98.5
 24
94.0
 34
0.0
 50
0.0
100
AcDbRotatedDimension
  0
DIMENSION
  5
4A
330
17
100
AcDbEntity
  8
0
100
AcDbDimension
280
0
  3
Standard
 10
98.5
 20
98.0
 30
0.0
 70
32
 71
5
  1
<> mm
100
AcDbAlignedDimension
 13
98.5
 23
94.0
 33
0.0
 14
117.0
 24
94.0
 34
0.0
 50
0.0
100
AcDbRotatedDimension
  0
DIMENSION
  5
4B
330
17
100
AcDbEntity
  8
0
100
AcDbDimension
280
0
  3
Standard
 10
121.0
 20
94.0
 30
0.0
 70
32
 71
5
  1
<> mm
100
AcDbAlignedDimension
 13
117.0
 23
94.0
 33
0.0
 14
117.0
 24
44.0
 34
0.0
 50
-90.0
100
AcDbRotatedDimension
  0
DIMENSION
  5
4C
330
17
100
AcDbEntity
  8
0
100
AcDbDimension
280
0
  3
Standard
 10
117.0
 20
40.0
 30
0.0
 70
32
 71
5
  1
<> mm
100
AcDbAlignedDimension
 13
117.0
 23
44.0
 33
0.0
 14
77.0
 24
44.0
 34
0.0
 50
180.0
100
AcDbRotatedDimension
  0
HATCH
  5
4D
330
17
100
AcDbEntity
  8
0
 62
4
100
AcDbHatch
 10
0.0
 20
0.0
 30
0.0
210
0.0
220
0.0
230
1.0
  2
SOLID
 70
1
 71
0
 91
2
 92
3
 72
0
 73
1
 93
4
 10
77.0
 20
204.0
 10
117.0
 20
204.0
 10
117.0
 20
254.0
 10
77.0
 20
254.0
 97
0
 92
3
 72
0
 73
1
 93
4
 10
80.0
 20
207.0
 10
114.0
 20
207.0
 10
114.0
 20
251.0
 10
80.0
 20
251.0
 97
0
 75
1
 76
1
 98
0
  0
MTEXT
  5
4E
330
17
100
AcDbEntity
  8
0
 62
2
100
AcDbMText
 10
69.0
 20
196.0
 30
0.0
 40
4.0
 41
98.0
 71
1
  1
Area = 504\PP. ext = 180\PP. int = 156\P\PAncho = 40\PAlto = 50\Pespesor = 3
  7
iso
 44
0.75
  0
DIMENSION
  5
4F
330
17
100
AcDbEntity
  8
0
100
AcDbDimension
280
0
  3
Standard
 10
73.0
 20
204.0
 30
0.0
 70
32
 71
5
  1
<> mm
100
AcDbAlignedDimension
 13
77.0
 23
204.0
 33
0.0
 14
77.0
 24
207.0
 34
0.0
 50
90.0
100
AcDbRotatedDimension
  0
DIMENSION
  5
50
330
17
100
AcDbEntity
  8
0
100
AcDbDimension
280
0
  3
Standard
 10
73.0
 20
207.0
 30
0.0
 70
32
 71
5
  1
<> mm
100
AcDbAlignedDimension
 13
77.0
 23
207.0
 33
0.0
 14
77.0
 24
251.0
 34
0.0
 50
90.0
100
AcDbRotatedDimension
  0
DIMENSION
  5
51
330
17
100
AcDbEntity
  8
0
100
AcDbDimension
280
0
  3
Standard
 10
73.0
 20
251.0
 30
0.0
 70
32
 71
5
  1
<> mm
100
AcDbAlignedDimension
 13
77.0
 23
251.0
 33
0.0
 14
77.0
 24
254.0
 34
0.0
 50
90.0
100
AcDbRotatedDimension
  0
DIMENSION
  5
52
330
17
100
AcDbEntity
  8
0
100
AcDbDimension
280
0
  3
Standard
 10
77.0
 20
258.0
 30
0.0
 70
32
 71
5
  1
<> mm
100
AcDbAlignedDimension
 13
77.0
 23
254.0
 33
0.0
 14
80.0
 24
254.0
 34
0.0
 50
0.0
100
AcDbRotatedDimension
  0
DIMENSION
  5
53
330
17
100
AcDbEntity
  8
0
100
AcDbDimension
280
0
  3
Standard
 10
80.0
 20
258.0
 30
0.0
 70
32
 71
5
  1
<> mm
100
AcDbAlignedDimension
 13
80.0
 23
254.0
 33
0.0
 14
114.0
 24
254.0
 34
0.0
 50
0.0
100
AcDbRotatedDimension
  0
DIMENSION
  5
54
330
17
100
AcDbEntity
  8
0
100
AcDbDimension
280
0
  3
Standard
 10
114.0
 20
258.0
 30
0.0
 70
32
 71
5
  1
<> mm
100
AcDbAlignedDimension
 13
114.0
 23
254.0
 33
0.0
 14
117.0
 24
254.0
 34
0.0
 50
0.0
100
AcDbRotatedDimension
  0
DIMENSION
  5
55
330
17
100
AcDbEntity
  8
0
100
AcDbDimension
280
0
  3
Standard
 10
121.0
 20
254.0
 30
0.0
 70
32
 71
5
  1
<> mm
100
AcDbAlignedDimension
 13
117.0
 23
254.0
 33
0.0
 14
117.0
 24
204.0
 34
0.0
 50
-90.0
100
AcDbRotatedDimension
  0
DIMENSION
  5
56
330
17
100
AcDbEntity
  8
0
100
AcDbDimension
280
0
  3
Standard
 10
117.0
 20
200.0
 30
0.0
 70
32
 71
5
  1
<> mm
100
AcDbAlignedDimension
 13
117.0
 23
204.0
 33
0.0
 14
77.0
 24
204.0
 34
0.0
 50
180.0
100
AcDbRotatedDimension
  0
HATCH
  5
57
330
17
100
AcDbEntity
  8
0
 62
4
100
AcDbHatch
 10
0.0
 20
0.0
 30
0.0
210
0.0
220
0.0
230
1.0
  2
SOLID
 70
1
 71
0
 91
1
 92
3
 72
0
 73
1
 93
12
 10
142.0
 20
44.0
 10
182.0
 20
44.0
 10
182.0
 20
48.0
 10
164.0
 20
48.0
 10
164.0
 20
90.0
 10
182.0
 20
90.0
 10
182.0
 20
94.0
 10
142.0
 20
94.0
 10
142.0
 20
90.0
 10
160.0
 20
90.0
 10
160.0
 20
48.0
 10
142.0
 20
48.0
 97
0
 75
1
 76
1
 98
0
  0
MTEXT
  5
58
330
17
100
AcDbEntity
  8
0
 62
2
100
AcDbMText
 10
134.0
 20
36.0
 30
0.0
 40
4.0
 41
98.0
 71
1
  1
Area = 488\PPerim = 252\P\PAncho = 40\PAla = 4\PAlto = 50\PAlma = 4
  7
iso
 44
0.75
  0
DIMENSION
  5
59
330
17
100
AcDbEntity
  8
0
100
AcDbDimension
280
0
  3
Standard
 10
138.0
 20
44.0
 30
0.0
 70
32
 71
5
  1
<> mm
100
AcDbAlignedDimension
 13
142.0
 23
44.0
 33
0.0
 14
142.0
 24
48.0
 34
0.0
 50
90.0
100
AcDbRotatedDimension
  0
DIMENSION
  5
5A
330
17
100
AcDbEntity
  8
0
100
AcDbDimension
280
0
  3
Standard
 10
138.0
 20
48.0
 30
0.0
 70
32
 71
5
  1
<> mm
100
AcDbAlignedDimension
 13
142.0
 23
48.0
 33
0.0
 14
142.0
 24
90.0
 34
0.0
 50
90.0
100
AcDbRotatedDimension
  0
DIMENSION
  5
5B
330
17
100
AcDbEntity
  8
0
100
AcDbDimension
280
0
  3
Standard
 10
138.0
 20
90.0
 30
0.0
 70
32
 71
5
  1
<> mm
100
AcDbAlignedDimension
 13
142.0
 23
90.0
 33
0.0
 14
142.0
 24
94.0
 34
0.0
 50
90.0
100
AcDbRotatedDimension
  0
DIMENSION
  5
5C
330
17
100
AcDbEntity
  8
0
100
AcDbDimension
280
0
  3
Standard
 10
142.0
 20
98.0
 30
0.0
 70
32
 71
5
  1
<> mm
100
AcDbAlignedDimension
 13
142.0
 23
94.0
 33
0.0
 14
160.0
 24
94.0
 34
0.0
 50
0.0
100
AcDbRotatedDimension
  0
DIMENSION
  5
5D
330
17
100
AcDbEntity
  8
0
100
AcDbDimension
280
0
  3
Standard
 10
160.0
 20
98.0
 30
0.0
 70
32
 71
5
  1
<> mm
100
AcDbAlignedDimension
 13
160.0
 23
94.0
 33
0.0
 14
164.0
 24
94.0
 34
0.0
 50
0.0
100
AcDbRotatedDimension
  0
DIMENSION
  5
5E
330
17
100
AcDbEntity
  8
0
100
AcDbDimension
280
0
  3
Standard
 10
164.0
 20
98.0
 30
0.0
 70
32
 71
5
  1
<> mm
100
AcDbAlignedDimension
 13
164.0
 23
94.0
 33
0.0
 14
182.0
 24
94.0
 34
0.0
 50
0.0
100
AcDbRotatedDimension
  0
DIMENSION
  5
5F
330
17
100
AcDbEntity
  8
0
100
AcDbDimension
280
0
  3
Standard
 10
186.0
 20
94.0
 30
0.0
 70
32
 71
5
  1
<> mm
100
AcDbAlignedDimension
 13
182.0
 23
94.0
 33
0.0
 14
182.0
 24
44.0
 34
0.0
 50
-90.0
100
AcDbRotatedDimension
  0
DIMENSION
  5
60
330
17
100
AcDbEntity
  8
0
100
AcDbDimension
280
0
  3
Standard
 10
182.0
 20
40.0
 30
0.0
 70
32
 71
5
  1
<> mm
100
AcDbAlignedDimension
 13
182.0
 23
44.0
 33
0.0
 14
142.0
 24
44.0
 34
0.0
 50
180.0
100
AcDbRotatedDimension
  0
HATCH
  5
61
330
17
100
AcDbEntity
  8
0
 62
4
100
AcDbHatch
 10
0.0
 20
0.0
 30
0.0
210
0.0
220
0.0
230
1.0
  2
SOLID
 70
1
 71
0
 91
2
 92
3
 72
0
 73
1
 93
4
 10
142.0
 20
204.0
 10
182.0
 20
204.0
 10
182.0
 20
254.0
 10
142.0
 20
254.0
 97
0
 92
3
 72
0
 73
1
 93
4
 10
146.0
 20
208.0
 10
178.0
 20
208.0
 10
178.0
 20
250.0
 10
146.0
 20
250.0
 97
0
 75
1
 76
1
 98
0
  0
MTEXT
  5
62
330
17
100
AcDbEntity
  8
0
 62
2
100
AcDbMText
 10
134.0
 20
196.0
 30
0.0
 40
4.0
 41
98.0
 71
1
  1
Area = 656\PP. ext = 180\PP. int = 148\P\PAncho = 40\PAlto = 50\Pespesor = 4
  7
iso
 44
0.75
  0
DIMENSION
  5
63
330
17
100
AcDbEntity
  8
0
100
AcDbDimension
280
0
  3
Standard
 10
138.0
 20
204.0
 30
0.0
 70
32
 71
5
  1
<> mm
100
AcDbAlignedDimension
 13
142.0
 23
204.0
 33
0.0
 14
142.0
 24
208.0
 34
0.0
 50
90.0
100
AcDbRotatedDimension
  0
DIMENSION
  5
64
330
17
100
AcDbEntity
  8
0
100
AcDbDimension
280
0
  3
Standard
 10
138.0
 20
208.0
 30
0.0
 70
32
 71
5
  1
<> mm
100
AcDbAlignedDimension
 13
142.0
 23
208.0
 33
0.0
 14
142.0
 24
250.0
 34
0.0
 50
90.0
100
AcDbRotatedDimension
  0
DIMENSION
  5
65
330
17
100
AcDbEntity
  8
0
100
AcDbDimension
280
0
  3
Standard
 10
138.0
 20
250.0
 30
0.0
 70
32
 71
5
  1
<> mm
100
AcDbAlignedDimension
 13
142.0
 23
250.0
 33
0.0
 14
142.0
 24
254.0
 34
0.0
 50
90.0
100
AcDbRotatedDimension
  0
DIMENSION
  5
66
330
17
100
AcDbEntity
  8
0
100
AcDbDimension
280
0
  3
Standard
 10
142.0
 20
258.0
 30
0.0
 70
32
 71
5
  1
<> mm
100
AcDbAlignedDimension
 13
142.0
 23
254.0
 33
0.0
 14
146.0
 24
254.0
 34
0.0
 50
0.0
100
AcDbRotatedDimension
  0
DIMENSION
  5
67
330
17
100
AcDbEntity
  8
0
100
AcDbDimension
280
0
  3
Standard
 10
146.0
 20
258.0
 30
0.0
 70
32
 71
5
  1
<> mm
100
AcDbAlignedDimension
 13
146.0
 23
254.0
 33
0.0
 14
178.0
 24
254.0
 34
0.0
 50
0.0
100
AcDbRotatedDimension
  0
DIMENSION
  5
68
330
17
100
AcDbEntity
  8
0
100
AcDbDimension
280
0
  3
Standard
 10
178.0
 20
258.0
 30
0.0
 70
32
 71
5
  1
<> mm
100
AcDbAlignedDimension
 13
178.0
 23
254.0
 33
0.0
 14
182.0
 24
254.0
 34
0.0
 50
0.0
100
AcDbRotatedDimension
  0
DIMENSION
  5
69
330
17
100
AcDbEntity
  8
0
100
AcDbDimension
280
0
  3
Standard
 10
186.0
 20
254.0
 30
0.0
 70
32
 71
5
  1
<> mm
100
AcDbAlignedDimension
 13
182.0
 23
254.0
 33
0.0
 14
182.0
 24
204.0
 34
0.0
 50
-90.0
100
AcDbRotatedDimension
  0
DIMENSION
  5
6A
330
17
100
AcDbEntity
  8
0
100
AcDbDimension
280
0
  3
Standard
 10
182.0
 20
200.0
 30
0.0
 70
32
 71
5
  1
<> mm
100
AcDbAlignedDimension
 13
182.0
 23
204.0
 33
0.0
 14
142.0
 24
204.0
 34
0.0
 50
180.0
100
AcDbRotatedDimension
  0
HATCH
  5
6B
330
17
100
AcDbEntity
  8
0
 62
4
100
AcDbHatch
 10
0.0
 20
0.0
 30
0.0
210
0.0
220
0.0
230
1.0
  2
SOLID
 70
1
 71
0
 91
1
 92
3
 72
0
 73
1
 93
12
 10
207.0
 20
44.0
 10
247.0
 20
44.0
 10
247.0
 20
49.0
 10
229.5
 20
49.0
 10
229.5
 20
89.0
 10
247.0
 20
89.0
 10
247.0
 20
94.0
 10
207.0
 20
94.0
 10
207.0
 20
89.0
 10
224.5
 20
89.0
 10
224.5
 20
49.0
 10
207.0
 20
49.0
 97
0
 75
1
 76
1
 98
0
  0
MTEXT
  5
6C
330
17
100
AcDbEntity
  8
0
 62
2
100
AcDbMText
 10
199.0
 20
36.0
 30
0.0
 40
4.0
 41
98.0
 71
1
  1
Area = 600\PPerim = 250\P\PAncho = 40\PAla = 5\PAlto = 50\PAlma = 5
  7
iso
 44
0.75
  0
DIMENSION
  5
6D
330
17
100
AcDbEntity
  8
0
100
AcDbDimension
280
0
  3
Standard
 10
203.0
 20
44.0
 30
0.0
 70
32
 71
5
  1
<> mm
100
AcDbAlignedDimension
 13
207.0
 23
44.0
 33
0.0
 14
207.0
 24
49.0
 34
0.0
 50
90.0
100
AcDbRotatedDimension
  0
DIMENSION
  5
6E
330
17
100
AcDbEntity
  8
0
100
AcDbDimension
280
0
  3
Standard
 10
203.0
 20
49.0
 30
0.0
 70
32
 71
5
  1
<> mm
100
AcDbAlignedDimension
 13
207.0
 23
49.0
 33
0.0
 14
207.0
 24
89.0
 34
0.0
 50
90.0
100
AcDbRotatedDimension
  0
DIMENSION
  5
6F
330
17
100
AcDbEntity
  8
0
100
AcDbDimension
280
0
  3
Standard
 10
203.0
 20
89.0
 30
0.0
 70
32
 71
5
  1
<> mm
100
AcDbAlignedDimension
 13
207.0
 23
89.0
 33
0.0
 14
207.0
 24
94.0
 34
0.0
 50
90.0
100
AcDbRotatedDimension
  0
DIMENSION
  5
70
330
17
100
AcDbEntity
  8
0
100
AcDbDimension
280
0
  3
Standard
 10
207.0
 20
98.0
 30
0.0
 70
32
 71
5
  1
<> mm
100
AcDbAlignedDimension
 13
207.0
 23
94.0
 33
0.0
 14
224.5
 24
94.0
 34
0.0
 50
0.0
100
AcDbRotatedDimension
  0
DIMENSION
  5
71
330
17
100
AcDbEntity
  8
0
100
AcDbDimension
280
0
  3
Standard
 10
224.5
 20
98.0
 30
0.0
 70
32
 71
5
  1
<> mm
100
AcDbAlignedDimension
 13
224.5
 23
94.0
 33
0.0
 14
229.5
 24
94.0
 34
0.0
 50
0.0
100
AcDbRotatedDimension
  0
DIMENSION
  5
72
330
17
100
AcDbEntity
  8
0
100
AcDbDimension
280
0
  3
Standard
 10
229.5
 20
98.0
 30
0.0
 70
32
 71
5
  1
<> mm
100
AcDbAlignedDimension
 13
229.5
 23
94.0
 33
0.0
 14
247.0
 24
94.0
 34
0.0
 50
0.0
100
AcDbRotatedDimension
  0
DIMENSION
  5
73
330
17
100
AcDbEntity
  8
0
100
AcDbDimension
280
0
  3
Standard
 10
251.0
 20
94.0
 30
0.0
 70
32
 71
5
  1
<> mm
100
AcDbAlignedDimension
 13
247.0
 23
94.0
 33
0.0
 14
247.0
 24
44.0
 34
0.0
 50
-90.0
100
AcDbRotatedDimension
  0
DIMENSION
  5
74
330
17
100
AcDbEntity
  8
0
100
AcDbDimension
280
0
  3
Standard
 10
247.0
 20
40.0
 30
0.0
 70
32
 71
5
  1
<> mm
100
AcDbAlignedDimension
 13
247.0
 23
44.0
 33
0.0
 14
207.0
 24
44.0
 34
0.0
 50
180.0
100
AcDbRotatedDimension
  0
HATCH
  5
75
330
17
100
AcDbEntity
  8
0
 62
4
100
AcDbHatch
 10
0.0
 20
0.0
 30
0.0
210
0.0
220
0.0
230
1.0
  2
SOLID
 70
1
 71
0
 91
2
 92
3
 72
0
 73
1
 93
4
 10
207.0
 20
204.0
 10
247.0
 20
204.0
 10
247.0
 20
254.0
 10
207.0
 20
254.0
 97
0
 92
3
 72
0
 73
1
 93
4
 10
212.0
 20
209.0
 10
242.0
 20
209.0
 10
242.0
 20
249.0
 10
212.0
 20
249.0
 97
0
 75
1
 76
1
 98
0
  0
MTEXT
  5
76
330
17
100
AcDbEntity
  8
0
 62
2
100
AcDbMText
 10
199.0
 20
196.0
 30
0.0
 40
4.0
 41
98.0
 71
1
  1
Area = 800\PP. ext = 180\PP. int = 140\P\PAncho = 40\PAlto = 50\Pespesor = 5
  7
iso
 44
0.75
  0
DIMENSION
  5
77
330
17
100
AcDbEntity
  8
0
100
AcDbDimension
280
0
  3
Standard
 10
203.0
 20
204.0
 30
0.0
 70
32
 71
5
  1
<> mm
100
AcDbAlignedDimension
 13
207.0
 23
204.0
 33
0.0
 14
207.0
 24
209.0
 34
0.0
 50
90.0
100
AcDbRotatedDimension
  0
DIMENSION
  5
78
330
17
100
AcDbEntity
  8
0
100
AcDbDimension
280
0
  3
Standard
 10
203.0
 20
209.0
 30
0.0
 70
32
 71
5
  1
<> mm
100
AcDbAlignedDimension
 13
207.0
 23
209.0
 33
0.0
 14
207.0
 24
249.0
 34
0.0
 50
90.0
100
AcDbRotatedDimension
  0
DIMENSION
  5
79
330
17
100
AcDbEntity
  8
0
100
AcDbDimension
280
0
  3
Standard
 10
203.0
 20
249.0
 30
0.0
 70
32
 71
5
  1
<> mm
100
AcDbAlignedDimension
 13
207.0
 23
249.0
 33
0.0
 14
207.0
 24
254.0
 34
0.0
 50
90.0
100
AcDbRotatedDimension
  0
DIMENSION
  5
7A
330
17
100
AcDbEntity
  8
0
100
AcDbDimension
280
0
  3
Standard
 10
207.0
 20
258.0
 30
0.0
 70
32
 71
5
  1
<> mm
100
AcDbAlignedDimension
 13
207.0
 23
254.0
 33
0.0
 14
212.0
 24
254.0
 34
0.0
 50
0.0
100
AcDbRotatedDimension
  0
DIMENSION
  5
7B
330
17
100
AcDbEntity
  8
0
100
AcDbDimension
280
0
  3
Standard
 10
212.0
 20
258.0
 30
0.0
 70
32
 71
5
  1
<> mm
100
AcDbAlignedDimension
 13
212.0
 23
254.0
 33
0.0
 14
242.0
 24
254.0
 34
0.0
 50
0.0
100
AcDbRotatedDimension
  0
DIMENSION
  5
7C
330
17
100
AcDbEntity
  8
0
100
AcDbDimension
280
0
  3
Standard
 10
242.0
 20
258.0
 30
0.0
 70
32
 71
5
  1
<> mm
100
AcDbAlignedDimension
 13
242.0
 23
254.0
 33
0.0
 14
247.0
 24
254.0
 34
0.0
 50
0.0
100
AcDbRotatedDimension
  0
DIMENSION
  5
7D
330
17
100
AcDbEntity
  8
0
100
AcDbDimension
280
0
  3
Standard
 10
251.0
 20
254.0
 30
0.0
 70
32
 71
5
  1
<> mm
100
AcDbAlignedDimension
 13
247.0
 23
254.0
 33
0.0
 14
247.0
 24
204.0
 34
0.0
 50
-90.0
100
AcDbRotatedDimension
  0
DIMENSION
  5
7E
330
17
100
AcDbEntity
  8
0
100
AcDbDimension
280
0
  3
Standard
 10
247.0
 20
200.0
 30
0.0
 70
32
 71
5
  1
<> mm
100
AcDbAlignedDimension
 13
247.0
 23
204.0
 33
0.0
 14
207.0
 24
204.0
 34
0.0
 50
180.0
100
AcDbRotatedDimension
  0
HATCH
  5
7F
330
17
100
AcDbEntity
  8
0
 62
4
100
AcDbHatch
 10
0.0
 20
0.0
 30
0.0
210
0.0
220
0.0
230
1.0
  2
SOLID
 70
1
 71
0
 91
1
 92
3
 72
0
 73
1
 93
12
 10
272.0
 20
44.0
 10
312.0
 20
44.0
 10
312.0
 20
50.0
 10
295.0
 20
50.0
 10
295.0
 20
88.0
 10
312.0
 20
88.0
 10
312.0
 20
94.0
 10
272.0
 20
94.0
 10
272.0
 20
88.0
 10
289.0
 20
88.0
 10
289.0
 20
50.0
 10
272.0
 20
50.0
 97
0
 75
1
 76
1
 98
0
  0
MTEXT
  5
80
330
17
100
AcDbEntity
  8
0
 62
2
100
AcDbMText
 10
264.0
 20
36.0
 30
0.0
 40
4.0
 41
98.0
 71
1
  1
Area = 708\PPerim = 248\P\PAncho = 40\PAla = 6\PAlto = 50\PAlma = 6
  7
iso
 44
0.75
  0
DIMENSION
  5
81
330
17
100
AcDbEntity
  8
0
100
AcDbDimension
280
0
  3
Standard
 10
268.0
 20
44.0
 30
0.0
 70
32
 71
5
  1
<> mm
100
AcDbAlignedDimension
 13
272.0
 23
44.0
 33
0.0
 14
272.0
 24
50.0
 34
0.0
 50
90.0
100
AcDbRotatedDimension
  0
DIMENSION
  5
82
330
17
100
AcDbEntity
  8
0
100
AcDbDimension
280
0
  3
Standard
 10
268.0
 20
50.0
 30
0.0
 70
32
 71
5
  1
<> mm
100
AcDbAlignedDimension
 13
272.0
 23
50.0
 33
0.0
 14
272.0
 24
88.0
 34
0.0
 50
90.0
100
AcDbRotatedDimension
  0
DIMENSION
  5
83
330
17
100
AcDbEntity
  8
0
100
AcDbDimension
280
0
  3
Standard
 10
268.0
 20
88.0
 30
0.0
 70
32
 71
5
  1
<> mm
100
AcDbAlignedDimension
 13
272.0
 23
88.0
 33
0.0
 14
272.0
 24
94.0
 34
0.0
 50
90.0
100
AcDbRotatedDimension
  0
DIMENSION
  5
84
330
17
100
AcDbEntity
  8
0
100
AcDbDimension
280
0
  3
Standard
 10
272.0
 20
98.0
 30
0.0
 70
32
 71
5
  1
<> mm
100
AcDbAlignedDimension
 13
272.0
 23
94.0
 33
0.0
 14
289.0
 24
94.0
 34
0.0
 50
0.0
100
AcDbRotatedDimension
  0
DIMENSION
  5
85
330
17
100
AcDbEntity
  8
0
100
AcDbDimension
280
0
  3
Standard
 10
289.0
 20
98.0
 30
0.0
 70
32
 71
5
  1
<> mm
100
AcDbAlignedDimension
 13
289.0
 23
94.0
 33
0.0
 14
295.0
 24
94.0
 34
0.0
 50
0.0
100
AcDbRotatedDimension
  0
DIMENSION
  5
86
330
17
100
AcDbEntity
  8
0
100
AcDbDimension
280
0
  3
Standard
 10
295.0
 20
98.0
 30
0.0
 70
32
 71
5
  1
<> mm
100
AcDbAlignedDimension
 13
295.0
 23
94.0
 33
0.0
 14
312.0
 24
94.0
 34
0.0
 50
0.0
100
AcDbRotatedDimension
  0
DIMENSION
  5
87
330
17
100
AcDbEntity
  8
0
100
AcDbDimension
280
0
  3
Standard
 10
316.0
 20
94.0
 30
0.0
 70
32
 71
5
  1
<> mm
100
AcDbAlignedDimension
 13
312.0
 23
94.0
 33
0.0
 14
312.0
 24
44.0
 34
0.0
 50
-90.0
100
AcDbRotatedDimension
  0
DIMENSION
  5
88
330
17
100
AcDbEntity
  8
0
100
AcDbDimension
280
0
  3
Standard
 10
312.0
 20
40.0
 30
0.0
 70
32
 71
5
  1
<> mm
100
AcDbAlignedDimension
 13
312.0
 23
44.0
 33
0.0
 14
272.0
 24
44.0
 34
0.0
 50
180.0
100
AcDbRotatedDimension
  0
HATCH
  5
89
330
17
100
AcDbEntity
  8
0
 62
4
100
AcDbHatch
 10
0.0
 20
0.0
 30
0.0
210
0.0
220
0.0
230
1.0
  2
SOLID
 70
1
 71
0
 91
2
 92
3
 72
0
 73
1
 93
4
 10
272.0
 20
204.0
 10
312.0
 20
204.0
 10
312.0
 20
254.0
 10
272.0
 20
254.0
 97
0
 92
3
 72
0
 73
1
 93
4
 10
278.0
 20
210.0
 10
306.0
 20
210.0
 10
306.0
 20
248.0
 10
278.0
 20
248.0
 97
0
 75
1
 76
1
 98
0
  0
MTEXT
  5
8A
330
17
100
AcDbEntity
  8
0
 62
2
100
AcDbMText
 10
264.0
 20
196.0
 30
0.0
 40
4.0
 41
98.0
 71
1
  1
Area = 936\PP. ext = 180\PP. int = 132\P\PAncho = 40\PAlto = 50\Pespesor = 6
  7
iso
 44
0.75
  0
DIMENSION
  5
8B
330
17
100
AcDbEntity
  8
0
100
AcDbDimension
280
0
  3
Standard
 10
268.0
 20
204.0
 30
0.0
 70
32
 71
5
  1
<> mm
100
AcDbAlignedDimension
 13
272.0
 23
204.0
 33
0.0
 14
272.0
 24
210.0
 34
0.0
 50
90.0
100
AcDbRotatedDimension
  0
DIMENSION
  5
8C
330
17
100
AcDbEntity
  8
0
100
AcDbDimension
280
0
  3
Standard
 10
268.0
 20
210.0
 30
0.0
 70
32
 71
5
  1
<> mm
100
AcDbAlignedDimension
 13
272.0
 23
210.0
 33
0.0
 14
272.0
 24
248.0
 34
0.0
 50
90.0
100
AcDbRotatedDimension
  0
DIMENSION
  5
8D
330
17
100
AcDbEntity
  8
0
100
AcDbDimension
280
0
  3
Standard
 10
268.0
 20
248.0
 30
0.0
 70
32
 71
5
  1
<> mm
100
AcDbAlignedDimension
 13
272.0
 23
248.0
 33
0.0
 14
272.0
 24
254.0
 34
0.0
 50
90.0
100
AcDbRotatedDimension
  0
DIMENSION
  5
8E
330
17
100
AcDbEntity
  8
0
100
AcDbDimension
280
0
  3
Standard
 10
272.0
 20
258.0
 30
0.0
 70
32
 71
5
  1
<> mm
100
AcDbAlignedDimension
 13
272.0
 23
254.0
 33
0.0
 14
278.0
 24
254.0
 34
0.0
 50
0.0
100
AcDbRotatedDimension
  0
DIMENSION
  5
8F
330
17
100
AcDbEntity
  8
0
100
AcDbDimension
280
0
  3
Standard
 10
278.0
 20
258.0
 30
0.0
 70
32
 71
5
  1
<> mm
100
AcDbAlignedDimension
 13
278.0
 23
254.0
 33
0.0
 14
306.0
 24
254.0
 34
0.0
 50
0.0
100
AcDbRotatedDimension
  0
DIMENSION
  5
90
330
17
100
AcDbEntity
  8
0
100
AcDbDimension
280
0
  3
Standard
 10
306.0
 20
258.0
 30
0.0
 70
32
 71
5
  1
<> mm
100
AcDbAlignedDimension
 13
306.0
 23
254.0
 33
0.0
 14
312.0
 24
254.0
 34
0.0
 50
0.0
100
AcDbRotatedDimension
  0
DIMENSION
  5
91
330
17
100
AcDbEntity
  8
0
100
AcDbDimension
280
0
  3
Standard
 10
316.0
 20
254.0
 30
0.0
 70
32
 71
5
  1
<> mm
100
AcDbAlignedDimension
 13
312.0
 23
254.0
 33
0.0
 14
312.0
 24
204.0
 34
0.0
 50
-90.0
100
AcDbRotatedDimension
  0
DIMENSION
  5
92
330
17
100
AcDbEntity
  8
0
100
AcDbDimension
280
0
  3
Standard
 10
312.0
 20
200.0
 30
0.0
 70
32
 71
5
  1
<> mm
100
AcDbAlignedDimension
 13
312.0
 23
204.0
 33
0.0
 14
272.0
 24
204.0
 34
0.0
 50
180.0
100
AcDbRotatedDimension
  0
HATCH
  5
93
330
17
100
AcDbEntity
  8
0
 62
4
100
AcDbHatch
 10
0.0
 20
0.0
 30
0.0
210
0.0
220
0.0
230
1.0
  2
SOLID
 70
1
 71
0
 91
1
 92
3
 72
0
 73
1
 93
12
 10
337.0
 20
44.0
 10
377.0
 20
44.0
 10
377.0
 20
51.0
 10
360.5
 20
51.0
 10
360.5
 20
87.0
 10
377.0
 20
87.0
 10
377.0
 20
94.0
 10
337.0
 20
94.0
 10
337.0
 20
87.0
 10
353.5
 20
87.0
 10
353.5
 20
51.0
 10
337.0
 20
51.0
 97
0
 75
1
 76
1
 98
0
  0
MTEXT
  5
94
330
17
100
AcDbEntity
  8
0
 62
2
100
AcDbMText
 10
329.0
 20
36.0
 30
0.0
 40
4.0
 41
98.0
 71
1
  1
Area = 812\PPerim = 246\P\PAncho = 40\PAla = 7\PAlto = 50\PAlma = 7
  7
iso
 44
0.75
  0
DIMENSION
  5
95
330
17
100
AcDbEntity
  8
0
100
AcDbDimension
280
0
  3
Standard
 10
333.0
 20
44.0
 30
0.0
 70
32
 71
5
  1
<> mm
100
AcDbAlignedDimension
 13
337.0
 23
44.0
 33
0.0
 14
337.0
 24
51.0
 34
0.0
 50
90.0
100
AcDbRotatedDimension
  0
DIMENSION
  5
96
330
17
100
AcDbEntity
  8
0
100
AcDbDimension
280
0
  3
Standard
 10
333.0
 20
51.0
 30
0.0
 70
32
 71
5
  1
<> mm
100
AcDbAlignedDimension
 13
337.0
 23
51.0
 33
0.0
 14
337.0
 24
87.0
 34
0.0
 50
90.0
100
AcDbRotatedDimension
  0
DIMENSION
  5
97
330
17
100
AcDbEntity
  8
0
100
AcDbDimension
280
0
  3
Standard
 10
333.0
 20
87.0
 30
0.0
 70
32
 71
5
  1
<> mm
100
AcDbAlignedDimension
 13
337.0
 23
87.0
 33
0.0
 14
337.0
 24
94.0
 34
0.0
 50
90.0
100
AcDbRotatedDimension
  0
DIMENSION
  5
98
330
17
100
AcDbEntity
  8
0
100
AcDbDimension
280
0
  3
Standard
 10
337.0
 20
98.0
 30
0.0
 70
32
 71
5
  1
<> mm
100
AcDbAlignedDimension
 13
337.0
 23
94.0
 33
0.0
 14
353.5
 24
94.0
 34
0.0
 50
0.0
100
AcDbRotatedDimension
  0
DIMENSION
  5
99
330
17
100
AcDbEntity
  8
0
100
AcDbDimension
280
0
  3
Standard
 10
353.5
 20
98.0
 30
0.0
 70
32
 71
5
  1
<> mm
100
AcDbAlignedDimension
 13
353.5
 23
94.0
 33
0.0
 14
360.5
 24
94.0
 34
0.0
 50
0.0
100
AcDbRotatedDimension
  0
DIMENSION
  5
9A
330
17
100
AcDbEntity
  8
0
100
AcDbDimension
280
0
  3
Standard
 10
360.5
 20
98.0
 30
0.0
 70
32
 71
5
  1
<> mm
100
AcDbAlignedDimension
 13
360.5
 23
94.0
 33
0.0
 14
377.0
 24
94.0
 34
0.0
 50
0.0
100
AcDbRotatedDimension
  0
DIMENSION
  5
9B
330
17
100
AcDbEntity
  8
0
100
AcDbDimension
280
0
  3
Standard
 10
381.0
 20
94.0
 30
0.0
 70
32
 71
5
  1
<> mm
100
AcDbAlignedDimension
 13
377.0
 23
94.0
 33
0.0
 14
377.0
 24
44.0
 34
0.0
 50
-90.0
100
AcDbRotatedDimension
  0
DIMENSION
  5
9C
330
17
100
AcDbEntity
  8
0
100
AcDbDimension
280
0
  3
Standard
 10
377.0
 20
40.0
 30
0.0
 70
32
 71
5
  1
<> mm
100
AcDbAlignedDimension
 13
377.0
 23
44.0
 33
0.0
 14
337.0
 24
44.0
 34
0.0
 50
180.0
100
AcDbRotatedDimension
  0
HATCH
  5
9D
330
17
100
AcDbEntity
  8
0
 62
4
100
AcDbHatch
 10
0.0
 20
0.0
 30
0.0
210
0.0
220
0.0
230
1.0
  2
SOLID
 70
1
 71
0
 91
2
 92
3
 72
0
 73
1
 93
4
 10
337.0
 20
204.0
 10
377.0
 20
204.0
 10
377.0
 20
254.0
 10
337.0
 20
254.0
 97
0
 92
3
 72
0
 73
1
 93
4
 10
344.0
 20
211.0
 10
370.0
 20
211.0
 10
370.0
 20
247.0
 10
344.0
 20
247.0
 97
0
 75
1
 76
1
 98
0
  0
MTEXT
  5
9E
330
17
100
AcDbEntity
  8
0
 62
2
100
AcDbMText
 10
329.0
 20
196.0
 30
0.0
 40
4.0
 41
98.0
 71
1
  1
Area = 1064\PP. ext = 180\PP. int = 124\P\PAncho = 40\PAlto = 50\Pespesor = 7
  7
iso
 44
0.75
  0
DIMENSION
  5
9F
330
17
100
AcDbEntity
  8
0
100
AcDbDimension
280
0
  3
Standard
 10
333.0
 20
204.0
 30
0.0
 70
32
 71
5
  1
<> mm
100
AcDbAlignedDimension
 13
337.0
 23
204.0
 33
0.0
 14
337.0
 24
211.0
 34
0.0
 50
90.0
100
AcDbRotatedDimension
  0
DIMENSION
  5
A0
330
17
100
AcDbEntity
  8
0
100
AcDbDimension
280
0
  3
Standard
 10
333.0
 20
211.0
 30
0.0
 70
32
 71
5
  1
<> mm
100
AcDbAlignedDimension
 13
337.0
 23
211.0
 33
0.0
 14
337.0
 24
247.0
 34
0.0
 50
90.0
100
AcDbRotatedDimension
  0
DIMENSION
  5
A1
330
17
100
AcDbEntity
  8
0
100
AcDbDimension
280
0
  3
Standard
 10
333.0
 20
247.0
 30
0.0
 70
32
 71
5
  1
<> mm
100
AcDbAlignedDimension
 13
337.0
 23
247.0
 33
0.0
 14
337.0
 24
254.0
 34
0.0
 50
90.0
100
AcDbRotatedDimension
  0
DIMENSION
  5
A2
330
17
100
AcDbEntity
  8
0
100
AcDbDimension
280
0
  3
Standard
 10
337.0
 20
258.0
 30
0.0
 70
32
 71
5
  1
<> mm
100
AcDbAlignedDimension
 13
337.0
 23
254.0
 33
0.0
 14
344.0
 24
254.0
 34
0.0
 50
0.0
100
AcDbRotatedDimension
  0
DIMENSION
  5
A3
330
17
100
AcDbEntity
  8
0
100
AcDbDimension
280
0
  3
Standard
 10
344.0
 20
258.0
 30
0.0
 70
32
 71
5
  1
<> mm
100
AcDbAlignedDimension
 13
344.0
 23
254.0
 33
0.0
 14
370.0
 24
254.0
 34
0.0
 50
0.0
100
AcDbRotatedDimension
  0
DIMENSION
  5
A4
330
17
100
AcDbEntity
  8
0
100
AcDbDimension
280
0
  3
Standard
 10
370.0
 20
258.0
 30
0.0
 70
32
 71
5
  1
<> mm
100
AcDbAlignedDimension
 13
370.0
 23
254.0
 33
0.0
 14
377.0
 24
254.0
 34
0.0
 50
0.0
100
AcDbRotatedDimension
  0
DIMENSION
  5
A5
330
17
100
AcDbEntity
  8
0
100
AcDbDimension
280
0
  3
Standard
 10
381.0
 20
254.0
 30
0.0
 70
32
 71
5
  1
<> mm
100
AcDbAlignedDimension
 13
377.0
 23
254.0
 33
0.0
 14
377.0
 24
204.0
 34
0.0
 50
-90.0
100
AcDbRotatedDimension
  0
DIMENSION
  5
A6
330
17
100
AcDbEntity
  8
0
100
AcDbDimension
280
0
  3
Standard
 10
377.0
 20
200.0
 30
0.0
 70
32
 71
5
  1
<> mm
100
AcDbAlignedDimension
 13
377.0
 23
204.0
 33
0.0
 14
337.0
 24
204.0
 34
0.0
 50
180.0
100
AcDbRotatedDimension
  0
HATCH
  5
A7
330
17
100
AcDbEntity
  8
0
 62
4
100
AcDbHatch
 10
0.0
 20
0.0
 30
0.0
210
0.0
220
0.0
230
1.0
  2
SOLID
 70
1
 71
0
 91
1
 92
3
 72
0
 73
1
 93
12
 10
402.0
 20
44.0
 10
442.0
 20
44.0
 10
442.0
 20
52.0
 10
426.0
 20
52.0
 10
426.0
 20
86.0
 10
442.0
 20
86.0
 10
442.0
 20
94.0
 10
402.0
 20
94.0
 10
402.0
 20
86.0
 10
418.0
 20
86.0
 10
418.0
 20
52.0
 10
402.0
 20
52.0
 97
0
 75
1
 76
1
 98
0
  0
MTEXT
  5
A8
330
17
100
AcDbEntity
  8
0
 62
2
100
AcDbMText
 10
394.0
 20
36.0
 30
0.0
 40
4.0
 41
98.0
 71
1
  1
Area = 912\PPerim = 244\P\PAncho = 40\PAla = 8\PAlto = 50\PAlma = 8
  7
iso
 44
0.75
  0
DIMENSION
  5
A9
330
17
100
AcDbEntity
  8
0
100
AcDbDimension
280
0
  3
Standard
 10
398.0
 20
44.0
 30
0.0
 70
32
 71
5
  1
<> mm
100
AcDbAlignedDimension
 13
402.0
 23
44.0
 33
0.0
 14
402.0
 24
52.0
 34
0.0
 50
90.0
100
AcDbRotatedDimension
  0
DIMENSION
  5
AA
330
17
100
AcDbEntity
  8
0
100
AcDbDimension
280
0
  3
Standard
 10
398.0
 20
52.0
 30
0.0
 70
32
 71
5
  1
<> mm
100
AcDbAlignedDimension
 13
402.0
 23
52.0
 33
0.0
 14
402.0
 24
86.0
 34
0.0
 50
90.0
100
AcDbRotatedDimension
  0
DIMENSION
  5
AB
330
17
100
AcDbEntity
  8
0
100
AcDbDimension
280
0
  3
Standard
 10
398.0
 20
86.0
 30
0.0
 70
32
 71
5
  1
<> mm
100
AcDbAlignedDimension
 13
402.0
 23
86.0
 33
0.0
 14
402.0
 24
94.0
 34
0.0
 50
90.0
100
AcDbRotatedDimension
  0
DIMENSION
  5
AC
330
17
100
AcDbEntity
  8
0
100
AcDbDimension
280
0
  3
Standard
 10
402.0
 20
98.0
 30
0.0
 70
32
 71
5
  1
<> mm
100
AcDbAlignedDimension
 13
402.0
 23
94.0
 33
0.0
 14
418.0
 24
94.0
 34
0.0
 50
0.0
100
AcDbRotatedDimension
  0
DIMENSION
  5
AD
330
17
100
AcDbEntity
  8
0
100
AcDbDimension
280
0
  3
Standard
 10
418.0
 20
98.0
 30
0.0
 70
32
 71
5
  1
<> mm
100
AcDbAlignedDimension
 13
418.0
 23
94.0
 33
0.0
 14
426.0
 24
94.0
 34
0.0
 50
0.0
100
AcDbRotatedDimension
  0
DIMENSION
  5
AE
330
17
100
AcDbEntity
  8
0
100
AcDbDimension
280
0
  3
Standard
 10
426.0
 20
98.0
 30
0.0
 70
32
 71
5
  1
<> mm
100
AcDbAlignedDimension
 13
426.0
 23
94.0
 33
0.0
 14
442.0
 24
94.0
 34
0.0
 50
0.0
100
AcDbRotatedDimension
  0
DIMENSION
  5
AF
330
17
100
AcDbEntity
  8
0
100
AcDbDimension
280
0
  3
Standard
 10
446.0
 20
94.0
 30
0.0
 70
32
 71
5
  1
<> mm
100
AcDbAlignedDimension
 13
442.0
 23
94.0
 33
0.0
 14
442.0
 24
44.0
 34
0.0
 50
-90.0
100
AcDbRotatedDimension
  0
DIMENSION
  5
B0
330
17
100
AcDbEntity
  8
0
100
AcDbDimension
280
0
  3
Standard
 10
442.0
 20
40.0
 30
0.0
 70
32
 71
5
  1
<> mm
100
AcDbAlignedDimension
 13
442.0
 23
44.0
 33
0.0
 14
402.0
 24
44.0
 34
0.0
 50
180.0
100
AcDbRotatedDimension
  0
HATCH
  5
B1
330
17
100
AcDbEntity
  8
0
 62
4
100
AcDbHatch
 10
0.0
 20
0.0
 30
0.0
210
0.0
220
0.0
230
1.0
  2
SOLID
 70
1
 71
0
 91
2
 92
3
 72
0
 73
1
 93
4
 10
402.0
 20
204.0
 10
442.0
 20
204.0
 10
442.0
 20
254.0
 10
402.0
 20
254.0
 97
0
 92
3
 72
0
 73
1
 93
4
 10
410.0
 20
212.0
 10
434.0
 20
212.0
 10
434.0
 20
246.0
 10
410.0
 20
246.0
 97
0
 75
1
 76
1
 98
0
  0
MTEXT
  5
B2
330
17
100
AcDbEntity
  8
0
 62
2
100
AcDbMText
 10
394.0
 20
196.0
 30
0.0
 40
4.0
 41
98.0
 71
1
  1
Area = 1184\PP. ext = 180\PP. int = 116\P\PAncho = 40\PAlto = 50\Pespesor = 8
  7
iso
 44
0.75
  0
DIMENSION
  5
B3
330
17
100
AcDbEntity
  8
0
100
AcDbDimension
280
0
  3
Standard
 10
398.0
 20
204.0
 30
0.0
 70
32
 71
5
  1
<> mm
100
AcDbAlignedDimension
 13
402.0
 23
204.0
 33
0.0
 14
402.0
 24
212.0
 34
0.0
 50
90.0
100
AcDbRotatedDimension
  0
DIMENSION
  5
B4
330
17
100
AcDbEntity
  8
0
100
AcDbDimension
280
0
  3
Standard
 10
398.0
 20
212.0
 30
0.0
 70
32
 71
5
  1
<> mm
100
AcDbAlignedDimension
 13
402.0
 23
212.0
 33
0.0
 14
402.0
 24
246.0
 34
0.0
 50
90.0
100
AcDbRotatedDimension
  0
DIMENSION
  5
B5
330
17
100
AcDbEntity
  8
0
100
AcDbDimension
280
0
  3
Standard
 10
398.0
 20
246.0
 30
0.0
 70
32
 71
5
  1
<> mm
100
AcDbAlignedDimension
 13
402.0
 23
246.0
 33
0.0
 14
402.0
 24
254.0
 34
0.0
 50
90.0
100
AcDbRotatedDimension
  0
DIMENSION
  5
B6
330
17
100
AcDbEntity
  8
0
100
AcDbDimension
280
0
  3
Standard
 10
402.0
 20
258.0
 30
0.0
 70
32
 71
5
  1
<> mm
100
AcDbAlignedDimension
 13
402.0
 23
254.0
 33
0.0
 14
410.0
 24
254.0
 34
0.0
 50
0.0
100
AcDbRotatedDimension
  0
DIMENSION
  5
B7
330
17
100
AcDbEntity
  8
0
100
AcDbDimension
280
0
  3
Standard
 10
410.0
 20
258.0
 30
0.0
 70
32
 71
5
  1
<> mm
100
AcDbAlignedDimension
 13
410.0
 23
254.0
 33
0.0
 14
434.0
 24
254.0
 34
0.0
 50
0.0
100
AcDbRotatedDimension
  0
DIMENSION
  5
B8
330
17
100
AcDbEntity
  8
0
100
AcDbDimension
280
0
  3
Standard
 10
434.0
 20
258.0
 30
0.0
 70
32
 71
5
  1
<> mm
100
AcDbAlignedDimension
 13
434.0
 23
254.0
 33
0.0
 14
442.0
 24
254.0
 34
0.0
 50
0.0
100
AcDbRotatedDimension
  0
DIMENSION
  5
B9
330
17
100
AcDbEntity
  8
0
100
AcDbDimension
280
0
  3
Standard
 10
446.0
 20
254.0
 30
0.0
 70
32
 71
5
  1
<> mm
100
AcDbAlignedDimension
 13
442.0
 23
254.0
 33
0.0
 14
442.0
 24
204.0
 34
0.0
 50
-90.0
100
AcDbRotatedDimension
  0
DIMENSION
  5
BA
330
17
100
AcDbEntity
  8
0
100
AcDbDimension
280
0
  3
Standard
 10
442.0
 20
200.0
 30
0.0
 70
32
 71
5
  1
<> mm
100
AcDbAlignedDimension
 13
442.0
 23
204.0
 33
0.0
 14
402.0
 24
204.0
 34
0.0
 50
180.0
100
AcDbRotatedDimension
  0
HATCH
  5
BB
330
17
100
AcDbEntity
  8
0
 62
4
100
AcDbHatch
 10
0.0
 20
0.0
 30
0.0
210
0.0
220
0.0
230
1.0
  2
SOLID
 70
1
 71
0
 91
1
 92
3
 72
0
 73
1
 93
12
 10
467.0
 20
44.0
 10
507.0
 20
44.0
 10
507.0
 20
53.0
 10
491.5
 20
53.0
 10
491.5
 20
85.0
 10
507.0
 20
85.0
 10
507.0
 20
94.0
 10
467.0
 20
94.0
 10
467.0
 20
85.0
 10
482.5
 20
85.0
 10
482.5
 20
53.0
 10
467.0
 20
53.0
 97
0
 75
1
 76
1
 98
0
  0
MTEXT
  5
BC
330
17
100
AcDbEntity
  8
0
 62
2
100
AcDbMText
 10
459.0
 20
36.0
 30
0.0
 40
4.0
 41
98.0
 71
1
  1
Area = 1008\PPerim = 242\P\PAncho = 40\PAla = 9\PAlto = 50\PAlma = 9
  7
iso
 44
0.75
  0
DIMENSION
  5
BD
330
17
100
AcDbEntity
  8
0
100
AcDbDimension
280
0
  3
Standard
 10
463.0
 20
44.0
 30
0.0
 70
32
 71
5
  1
<> mm
100
AcDbAlignedDimension
 13
467.0
 23
44.0
 33
0.0
 14
467.0
 24
53.0
 34
0.0
 50
90.0
100
AcDbRotatedDimension
  0
DIMENSION
  5
BE
330
17
100
AcDbEntity
  8
0
100
AcDbDimension
280
0
  3
Standard
 10
463.0
 20
53.0
 30
0.0
 70
32
 71
5
  1
<> mm
100
AcDbAlignedDimension
 13
467.0
 23
53.0
 33
0.0
 14
467.0
 24
85.0
 34
0.0
 50
90.0
100
AcDbRotatedDimension
  0
DIMENSION
  5
BF
330
17
100
AcDbEntity
  8
0
100
AcDbDimension
280
0
  3
Standard
 10
463.0
 20
85.0
 30
0.0
 70
32
 71
5
  1
<> mm
100
AcDbAlignedDimension
 13
467.0
 23
85.0
 33
0.0
 14
467.0
 24
94.0
 34
0.0
 50
90.0
100
AcDbRotatedDimension
  0
DIMENSION
  5
C0
330
17
100
AcDbEntity
  8
0
100
AcDbDimension
280
0
  3
Standard
 10
467.0
 20
98.0
 30
0.0
 70
32
 71
5
  1
<> mm
100
AcDbAlignedDimension
 13
467.0
 23
94.0
 33
0.0
 14
482.5
 24
94.0
 34
0.0
 50
0.0
100
AcDbRotatedDimension
  0
DIMENSION
  5
C1
330
17
100
AcDbEntity
  8
0
100
AcDbDimension
280
0
  3
Standard
 10
482.5
 20
98.0
 30
0.0
 70
32
 71
5
  1
<> mm
100
AcDbAlignedDimension
 13
482.5
 23
94.0
 33
0.0
 14
491.5
 24
94.0
 34
0.0
 50
0.0
100
AcDbRotatedDimension
  0
DIMENSION
  5
C2
330
17
100
AcDbEntity
  8
0
100
AcDbDimension
280
0
  3
Standard
 10
491.5
 20
98.0
 30
0.0
 70
32
 71
5
  1
<> mm
100
AcDbAlignedDimension
 13
491.5
 23
94.0
 33
0.0
 14
507.0
 24
94.0
 34
0.0
 50
0.0
100
AcDbRotatedDimension
  0
DIMENSION
  5
C3
330
17
100
AcDbEntity
  8
0
100
AcDbDimension
280
0
  3
Standard
 10
511.0
 20
94.0
 30
0.0
 70
32
 71
5
  1
<> mm
100
AcDbAlignedDimension
 13
507.0
 23
94.0
 33
0.0
 14
507.0
 24
44.0
 34
0.0
 50
-90.0
100
AcDbRotatedDimension
  0
DIMENSION
  5
C4
330
17
100
AcDbEntity
  8
0
100
AcDbDimension
280
0
  3
Standard
 10
507.0
 20
40.0
 30
0.0
 70
32
 71
5
  1
<> mm
100
AcDbAlignedDimension
 13
507.0
 23
44.0
 33
0.0
 14
467.0
 24
44.0
 34
0.0
 50
180.0
100
AcDbRotatedDimension
  0
HATCH
  5
C5
330
17
100
AcDbEntity
  8
0
 62
4
100
AcDbHatch
 10
0.0
 20
0.0
 30
0.0
210
0.0
220
0.0
230
1.0
  2
SOLID
 70
1
 71
0
 91
2
 92
3
 72
0
 73
1
 93
4
 10
467.0
 20
204.0
 10
507.0
 20
204.0
 10
507.0
 20
254.0
 10
467.0
 20
254.0
 97
0
 92
3
 72
0
 73
1
 93
4
 10
476.0
 20
213.0
 10
498.0
 20
213.0
 10
498.0
 20
245.0
 10
476.0
 20
245.0
 97
0
 75
1
 76
1
 98
0
  0
MTEXT
  5
C6
330
17
100
AcDbEntity
  8
0
 62
2
100
AcDbMText
 10
459.0
 20
196.0
 30
0.0
 40
4.0
 41
98.0
 71
1
  1
Area = 1296\PP. ext = 180\PP. int = 108\P\PAncho = 40\PAlto = 50\Pespesor = 9
  7
iso
 44
0.75
  0
DIMENSION
  5
C7
330
17
100
AcDbEntity
  8
0
100
AcDbDimension
280
0
  3
Standard
 10
463.0
 20
204.0
 30
0.0
 70
32
 71
5
  1
<> mm
100
AcDbAlignedDimension
 13
467.0
 23
204.0
 33
0.0
 14
467.0
 24
213.0
 34
0.0
 50
90.0
100
AcDbRotatedDimension
  0
DIMENSION
  5
C8
330
17
100
AcDbEntity
  8
0
100
AcDbDimension
280
0
  3
Standard
 10
463.0
 20
213.0
 30
0.0
 70
32
 71
5
  1
<> mm
100
AcDbAlignedDimension
 13
467.0
 23
213.0
 33
0.0
 14
467.0
 24
245.0
 34
0.0
 50
90.0
100
AcDbRotatedDimension
  0
DIMENSION
  5
C9
330
17
100
AcDbEntity
  8
0
100
AcDbDimension
280
0
  3
Standard
 10
463.0
 20
245.0
 30
0.0
 70
32
 71
5
  1
<> mm
100
AcDbAlignedDimension
 13
467.0
 23
245.0
 33
0.0
 14
467.0
 24
254.0
 34
0.0
 50
90.0
100
AcDbRotatedDimension
  0
DIMENSION
  5
CA
330
17
100
AcDbEntity
  8
0
100
AcDbDimension
280
0
  3
Standard
 10
467.0
 20
258.0
 30
0.0
 70
32
 71
5
  1
<> mm
100
AcDbAlignedDimension
 13
467.0
 23
254.0
 33
0.0
 14
476.0
 24
254.0
 34
0.0
 50
0.0
100
AcDbRotatedDimension
  0
DIMENSION
  5
CB
330
17
100
AcDbEntity
  8
0
100
AcDbDimension
280
0
  3
Standard
 10
476.0
 20
258.0
 30
0.0
 70
32
 71
5
  1
<> mm
100
AcDbAlignedDimension
 13
476.0
 23
254.0
 33
0.0
 14
498.0
 24
254.0
 34
0.0
 50
0.0
100
AcDbRotatedDimension
  0
DIMENSION
  5
CC
330
17
100
AcDbEntity
  8
0
100
AcDbDimension
280
0
  3
Standard
 10
498.0
 20
258.0
 30
0.0
 70
32
 71
5
  1
<> mm
100
AcDbAlignedDimension
 13
498.0
 23
254.0
 33
0.0
 14
507.0
 24
254.0
 34
0.0
 50
0.0
100
AcDbRotatedDimension
  0
DIMENSION
  5
CD
330
17
100
AcDbEntity
  8
0
100
AcDbDimension
280
0
  3
Standard
 10
511.0
 20
254.0
 30
0.0
 70
32
 71
5
  1
<> mm
100
AcDbAlignedDimension
 13
507.0
 23
254.0
 33
0.0
 14
507.0
 24
204.0
 34
0.0
 50
-90.0
100
AcDbRotatedDimension
  0
DIMENSION
  5
CE
330
17
100
AcDbEntity
  8
0
100
AcDbDimension
280
0
  3
Standard
 10
507.0
 20
200.0
 30
0.0
 70
32
 71
5
  1
<> mm
100
AcDbAlignedDimension
 13
507.0
 23
204.0
 33
0.0
 14
467.0
 24
204.0
 34
0.0
 50
180.0
100
AcDbRotatedDimension
  0
HATCH
  5
CF
330
17
100
AcDbEntity
  8
0
 62
4
100
AcDbHatch
 10
0.0
 20
0.0
 30
0.0
210
0.0
220
0.0
230
1.0
  2
SOLID
 70
1
 71
0
 91
1
 92
3
 72
0
 73
1
 93
12
 10
532.0
 20
44.0
 10
572.0
 20
44.0
 10
572.0
 20
54.0
 10
557.0
 20
54.0
 10
557.0
 20
84.0
 10
572.0
 20
84.0
 10
572.0
 20
94.0
 10
532.0
 20
94.0
 10
532.0
 20
84.0
 10
547.0
 20
84.0
 10
547.0
 20
54.0
 10
532.0
 20
54.0
 97
0
 75
1
 76
1
 98
0
  0
MTEXT
  5
D0
330
17
100
AcDbEntity
  8
0
 62
2
100
AcDbMText
 10
524.0
 20
36.0
 30
0.0
 40
4.0
 41
98.0
 71
1
  1
Area = 1100\PPerim = 240\P\PAncho = 40\PAla = 10\PAlto = 50\PAlma = 10
  7
iso
 44
0.75
  0
DIMENSION
  5
D1
330
17
100
AcDbEntity
  8
0
100
AcDbDimension
280
0
  3
Standard
 10
528.0
 20
44.0
 30
0.0
 70
32
 71
5
  1
<> mm
100
AcDbAlignedDimension
 13
532.0
 23
44.0
 33
0.0
 14
532.0
 24
54.0
 34
0.0
 50
90.0
100
AcDbRotatedDimension
  0
DIMENSION
  5
D2
330
17
100
AcDbEntity
  8
0
100
AcDbDimension
280
0
  3
Standard
 10
528.0
 20
54.0
 30
0.0
 70
32
 71
5
  1
<> mm
100
AcDbAlignedDimension
 13
532.0
 23
54.0
 33
0.0
 14
532.0
 24
84.0
 34
0.0
 50
90.0
100
AcDbRotatedDimension
  0
DIMENSION
  5
D3
330
17
100
AcDbEntity
  8
0
100
AcDbDimension
280
0
  3
Standard
 10
528.0
 20
84.0
 30
0.0
 70
32
 71
5
  1
<> mm
100
AcDbAlignedDimension
 13
532.0
 23
84.0
 33
0.0
 14
532.0
 24
94.0
 34
0.0
 50
90.0
100
AcDbRotatedDimension
  0
DIMENSION
  5
D4
330
17
100
AcDbEntity
  8
0
100
AcDbDimension
280
0
  3
Standard
 10
532.0
 20
98.0
 30
0.0
 70
32
 71
5
  1
<> mm
100
AcDbAlignedDimension
 13
532.0
 23
94.0
 33
0.0
 14
547.0
 24
94.0
 34
0.0
 50
0.0
100
AcDbRotatedDimension
  0
DIMENSION
  5
D5
330
17
100
AcDbEntity
  8
0
100
AcDbDimension
280
0
  3
Standard
 10
547.0
 20
98.0
 30
0.0
 70
32
 71
5
  1
<> mm
100
AcDbAlignedDimension
 13
547.0
 23
94.0
 33
0.0
 14
557.0
 24
94.0
 34
0.0
 50
0.0
100
AcDbRotatedDimension
  0
DIMENSION
  5
D6
330
17
100
AcDbEntity
  8
0
100
AcDbDimension
280
0
  3
Standard
 10
557.0
 20
98.0
 30
0.0
 70
32
 71
5
  1
<> mm
100
AcDbAlignedDimension
 13
557.0
 23
94.0
 33
0.0
 14
572.0
 24
94.0
 34
0.0
 50
0.0
100
AcDbRotatedDimension
  0
DIMENSION
  5
D7
330
17
100
AcDbEntity
  8
0
100
AcDbDimension
280
0
  3
Standard
 10
576.0
 20
94.0
 30
0.0
 70
32
 71
5
  1
<> mm
100
AcDbAlignedDimension
 13
572.0
 23
94.0
 33
0.0
 14
572.0
 24
44.0
 34
0.0
 50
-90.0
100
AcDbRotatedDimension
  0
DIMENSION
  5
D8
330
17
100
AcDbEntity
  8
0
100
AcDbDimension
280
0
  3
Standard
 10
572.0
 20
40.0
 30
0.0
 70
32
 71
5
  1
<> mm
100
AcDbAlignedDimension
 13
572.0
 23
44.0
 33
0.0
 14
532.0
 24
44.0
 34
0.0
 50
180.0
100
AcDbRotatedDimension
  0
HATCH
  5
D9
330
17
100
AcDbEntity
  8
0
 62
4
100
AcDbHatch
 10
0.0
 20
0.0
 30
0.0
210
0.0
220
0.0
230
1.0
  2
SOLID
 70
1
 71
0
 91
2
 92
3
 72
0
 73
1
 93
4
 10
532.0
 20
204.0
 10
572.0
 20
204.0
 10
572.0
 20
254.0
 10
532.0
 20
254.0
 97
0
 92
3
 72
0
 73
1
 93
4
 10
542.0
 20
214.0
 10
562.0
 20
214.0
 10
562.0
 20
244.0
 10
542.0
 20
244.0
 97
0
 75
1
 76
1
 98
0
  0
MTEXT
  5
DA
330
17
100
AcDbEntity
  8
0
 62
2
100
AcDbMText
 10
524.0
 20
196.0
 30
0.0
 40
4.0
 41
98.0
 71
1
  1
Area = 1400\PP. ext = 180\PP. int = 100\P\PAncho = 40\PAlto = 50\Pespesor = 10
  7
iso
 44
0.75
  0
DIMENSION
  5
DB
330
17
100
AcDbEntity
  8
0
100
AcDbDimension
280
0
  3
Standard
 10
528.0
 20
204.0
 30
0.0
 70
32
 71
5
  1
<> mm
100
AcDbAlignedDimension
 13
532.0
 23
204.0
 33
0.0
 14
532.0
 24
214.0
 34
0.0
 50
90.0
100
AcDbRotatedDimension
  0
DIMENSION
  5
DC
330
17
100
AcDbEntity
  8
0
100
AcDbDimension
280
0
  3
Standard
 10
528.0
 20
214.0
 30
0.0
 70
32
 71
5
  1
<> mm
100
AcDbAlignedDimension
 13
532.0
 23
214.0
 33
0.0
 14
532.0
 24
244.0
 34
0.0
 50
90.0
100
AcDbRotatedDimension
  0
DIMENSION
  5
DD
330
17
100
AcDbEntity
  8
0
100
AcDbDimension
280
0
  3
Standard
 10
528.0
 20
244.0
 30
0.0
 70
32
 71
5
  1
<> mm
100
AcDbAlignedDimension
 13
532.0
 23
244.0
 33
0.0
 14
532.0
 24
254.0
 34
0.0
 50
90.0
100
AcDbRotatedDimension
  0
DIMENSION
  5
DE
330
17
100
AcDbEntity
  8
0
100
AcDbDimension
280
0
  3
Standard
 10
532.0
 20
258.0
 30
0.0
 70
32
 71
5
  1
<> mm
100
AcDbAlignedDimension
 13
532.0
 23
254.0
 33
0.0
 14
542.0
 24
254.0
 34
0.0
 50
0.0
100
AcDbRotatedDimension
  0
DIMENSION
  5
DF
330
17
100
AcDbEntity
  8
0
100
AcDbDimension
280
0
  3
Standard
 10
542.0
 20
258.0
 30
0.0
 70
32
 71
5
  1
<> mm
100
AcDbAlignedDimension
 13
542.0
 23
254.0
 33
0.0
 14
562.0
 24
254.0
 34
0.0
 50
0.0
100
AcDbRotatedDimension
  0
DIMENSION
  5
E0
330
17
100
AcDbEntity
  8
0
100
AcDbDimension
280
0
  3
Standard
 10
562.0
 20
258.0
 30
0.0
 70
32
 71
5
  1
<> mm
100
AcDbAlignedDimension
 13
562.0
 23
254.0
 33
0.0
 14
572.0
 24
254.0
 34
0.0
 50
0.0
100
AcDbRotatedDimension
  0
DIMENSION
  5
E1
330
17
100
AcDbEntity
  8
0
100
AcDbDimension
280
0
  3
Standard
 10
576.0
 20
254.0
 30
0.0
 70
32
 71
5
  1
<> mm
100
AcDbAlignedDimension
 13
572.0
 23
254.0
 33
0.0
 14
572.0
 24
204.0
 34
0.0
 50
-90.0
100
AcDbRotatedDimension
  0
DIMENSION
  5
E2
330
17
100
AcDbEntity
  8
0
100
AcDbDimension
280
0
  3
Standard
 10
572.0
 20
200.0
 30
0.0
 70
32
 71
5
  1
<> mm
100
AcDbAlignedDimension
 13
572.0
 23
204.0
 33
0.0
 14
532.0
 24
204.0
 34
0.0
 50
180.0
100
AcDbRotatedDimension
  0
HATCH
  5
E3
330
17
100
AcDbEntity
  8
0
 62
4
100
AcDbHatch
 10
0.0
 20
0.0
 30
0.0
210
0.0
220
0.0
230
1.0
  2
SOLID
 70
1
 71
0
 91
1
 92
3
 72
0
 73
1
 93
12
 10
597.0
 20
44.0
 10
637.0
 20
44.0
 10
637.0
 20
55.0
 10
622.5
 20
55.0
 10
622.5
 20
83.0
 10
637.0
 20
83.0
 10
637.0
 20
94.0
 10
597.0
 20
94.0
 10
597.0
 20
83.0
 10
611.5
 20
83.0
 10
611.5
 20
55.0
 10
597.0
 20
55.0
 97
0
 75
1
 76
1
 98
0
  0
MTEXT
  5
E4
330
17
100
AcDbEntity
  8
0
 62
2
100
AcDbMText
 10
589.0
 20
36.0
 30
0.0
 40
4.0
 41
98.0
 71
1
  1
Area = 1188\PPerim = 238\P\PAncho = 40\PAla = 11\PAlto = 50\PAlma = 11
  7
iso
 44
0.75
  0
DIMENSION
  5
E5
330
17
100
AcDbEntity
  8
0
100
AcDbDimension
280
0
  3
Standard
 10
593.0
 20
44.0
 30
0.0
 70
32
 71
5
  1
<> mm
100
AcDbAlignedDimension
 13
597.0
 23
44.0
 33
0.0
 14
597.0
 24
55.0
 34
0.0
 50
90.0
100
AcDbRotatedDimension
  0
DIMENSION
  5
E6
330
17
100
AcDbEntity
  8
0
100
AcDbDimension
280
0
  3
Standard
 10
593.0
 20
55.0
 30
0.0
 70
32
 71
5
  1
<> mm
100
AcDbAlignedDimension
 13
597.0
 23
55.0
 33
0.0
 14
597.0
 24
83.0
 34
0.0
 50
90.0
100
AcDbRotatedDimension
  0
DIMENSION
  5
E7
330
17
100
AcDbEntity
  8
0
100
AcDbDimension
280
0
  3
Standard
 10
593.0
 20
83.0
 30
0.0
 70
32
 71
5
  1
<> mm
100
AcDbAlignedDimension
 13
597.0
 23
83.0
 33
0.0
 14
597.0
 24
94.0
 34
0.0
 50
90.0
100
AcDbRotatedDimension
  0
DIMENSION
  5
E8
330
17
100
AcDbEntity
  8
0
100
AcDbDimension
280
0
  3
Standard
 10
597.0
 20
98.0
 30
0.0
 70
32
 71
5
  1
<> mm
100
AcDbAlignedDimension
 13
597.0
 23
94.0
 33
0.0
 14
611.5
 24
94.0
 34
0.0
 50
0.0
100
AcDbRotatedDimension
  0
DIMENSION
  5
E9
330
17
100
AcDbEntity
  8
0
100
AcDbDimension
280
0
  3
Standard
 10
611.5
 20
98.0
 30
0.0
 70
32
 71
5
  1
<> mm
100
AcDbAlignedDimension
 13
611.5
 23
94.0
 33
0.0
 14
622.5
 24
94.0
 34
0.0
 50
0.0
100
AcDbRotatedDimension
  0
DIMENSION
  5
EA
330
17
100
AcDbEntity
  8
0
100
AcDbDimension
280
0
  3
Standard
 10
622.5
 20
98.0
 30
0.0
 70
32
 71
5
  1
<> mm
100
AcDbAlignedDimension
 13
622.5
 23
94.0
 33
0.0
 14
637.0
 24
94.0
 34
0.0
 50
0.0
100
AcDbRotatedDimension
  0
DIMENSION
  5
EB
330
17
100
AcDbEntity
  8
0
100
AcDbDimension
280
0
  3
Standard
 10
641.0
 20
94.0
 30
0.0
 70
32
 71
5
  1
<> mm
100
AcDbAlignedDimension
 13
637.0
 23
94.0
 33
0.0
 14
637.0
 24
44.0
 34
0.0
 50
-90.0
100
AcDbRotatedDimension
  0
DIMENSION
  5
EC
330
17
100
AcDbEntity
  8
0
100
AcDbDimension
280
0
  3
Standard
 10
637.0
 20
40.0
 30
0.0
 70
32
 71
5
  1
<> mm
100
AcDbAlignedDimension
 13
637.0
 23
44.0
 33
0.0
 14
597.0
 24
44.0
 34
0.0
 50
180.0
100
AcDbRotatedDimension
  0
HATCH
  5
ED
330
17
100
AcDbEntity
  8
0
 62
4
100
AcDbHatch
 10
0.0
 20
0.0
 30
0.0
210
0.0
220
0.0
230
1.0
  2
SOLID
 70
1
 71
0
 91
2
 92
3
 72
0
 73
1
 93
4
 10
597.0
 20
204.0
 10
637.0
 20
204.0
 10
637.0
 20
254.0
 10
597.0
 20
254.0
 97
0
 92
3
 72
0
 73
1
 93
4
 10
608.0
 20
215.0
 10
626.0
 20
215.0
 10
626.0
 20
243.0
 10
608.0
 20
243.0
 97
0
 75
1
 76
1
 98
0
  0
MTEXT
  5
EE
330
17
100
AcDbEntity
  8
0
 62
2
100
AcDbMText
 10
589.0
 20
196.0
 30
0.0
 40
4.0
 41
98.0
 71
1
  1
Area = 1496\PP. ext = 180\PP. int = 92\P\PAncho = 40\PAlto = 50\Pespesor = 11
  7
iso
 44
0.75
  0
DIMENSION
  5
EF
330
17
100
AcDbEntity
  8
0
100
AcDbDimension
280
0
  3
Standard
 10
593.0
 20
204.0
 30
0.0
 70
32
 71
5
  1
<> mm
100
AcDbAlignedDimension
 13
597.0
 23
204.0
 33
0.0
 14
597.0
 24
215.0
 34
0.0
 50
90.0
100
AcDbRotatedDimension
  0
DIMENSION
  5
F0
330
17
100
AcDbEntity
  8
0
100
AcDbDimension
280
0
  3
Standard
 10
593.0
 20
215.0
 30
0.0
 70
32
 71
5
  1
<> mm
100
AcDbAlignedDimension
 13
597.0
 23
215.0
 33
0.0
 14
597.0
 24
243.0
 34
0.0
 50
90.0
100
AcDbRotatedDimension
  0
DIMENSION
  5
F1
330
17
100
AcDbEntity
  8
0
100
AcDbDimension
280
0
  3
Standard
 10
593.0
 20
243.0
 30
0.0
 70
32
 71
5
  1
<> mm
100
AcDbAlignedDimension
 13
597.0
 23
243.0
 33
0.0
 14
597.0
 24
254.0
 34
0.0
 50
90.0
100
AcDbRotatedDimension
  0
DIMENSION
  5
F2
330
17
100
AcDbEntity
  8
0
100
AcDbDimension
280
0
  3
Standard
 10
597.0
 20
258.0
 30
0.0
 70
32
 71
5
  1
<> mm
100
AcDbAlignedDimension
 13
597.0
 23
254.0
 33
0.0
 14
608.0
 24
254.0
 34
0.0
 50
0.0
100
AcDbRotatedDimension
  0
DIMENSION
  5
F3
330
17
100
AcDbEntity
  8
0
100
AcDbDimension
280
0
  3
Standard
 10
608.0
 20
258.0
 30
0.0
 70
32
 71
5
  1
<> mm
100
AcDbAlignedDimension
 13
608.0
 23
254.0
 33
0.0
 14
626.0
 24
254.0
 34
0.0
 50
0.0
100
AcDbRotatedDimension
  0
DIMENSION
  5
F4
330
17
100
AcDbEntity
  8
0
100
AcDbDimension
280
0
  3
Standard
 10
626.0
 20
258.0
 30
0.0
 70
32
 71
5
  1
<> mm
100
AcDbAlignedDimension
 13
626.0
 23
254.0
 33
0.0
 14
637.0
 24
254.0
 34
0.0
 50
0.0
100
AcDbRotatedDimension
  0
DIMENSION
  5
F5
330
17
100
AcDbEntity
  8
0
100
AcDbDimension
280
0
  3
Standard
 10
641.0
 20
254.0
 30
0.0
 70
32
 71
5
  1
<> mm
100
AcDbAlignedDimension
 13
637.0
 23
254.0
 33
0.0
 14
637.0
 24
204.0
 34
0.0
 50
-90.0
100
AcDbRotatedDimension
  0
DIMENSION
  5
F6
330
17
100
AcDbEntity
  8
0
100
AcDbDimension
280
0
  3
Standard
 10
637.0
 20
200.0
 30
0.0
 70
32
 71
5
  1
<> mm
100
AcDbAlignedDimension
 13
637.0
 23
204.0
 33
0.0
 14
597.0
 24
204.0
 34
0.0
 50
180.0
100
AcDbRotatedDimension
  0
ENDSEC
  0
SECTION
  2
OBJECTS
  0
DICTIONARY
  5
A
330
0
100
AcDbDictionary
281
1
  3
ACAD_COLOR
350
B
  3
ACAD_GROUP
350
C
  3
ACAD_LAYOUT
350
D
  3
ACAD_MATERIAL
350
E
  3
ACAD_MLEADERSTYLE
350
F
  3
ACAD_MLINESTYLE
350
10
  3
ACAD_PLOTSETTINGS
350
11
  3
ACAD_PLOTSTYLENAME
350
12
  3
ACAD_SCALELIST
350
14
  3
ACAD_TABLESTYLE
350
15
  3
ACAD_VISUALSTYLE
350
16
  3
EZDXF_META
350
2D
  0
DICTIONARY
  5
B
330
A
100
AcDbDictionary
281
1
  0
DICTIONARY
  5
C
330
A
100
AcDbDictionary
281
1
  0
DICTIONARY
  5
D
330
A
100
AcDbDictionary
281
1
  3
Model
350
1A
  3
Layout1
350
1E
  0
DICTIONARY
  5
E
330
A
100
AcDbDictionary
281
1
  3
ByBlock
350
1F
  3
ByLayer
350
20
  3
Global
350
21
  0
DICTIONARY
  5
F
330
A
100
AcDbDictionary
281
1
  3
Standard
350
2C
  0
DICTIONARY
  5
10
330
A
100
AcDbDictionary
281
1
  3
Standard
350
22
  0
DICTIONARY
  5
11
330
A
100
AcDbDictionary
281
1
  0
ACDBDICTIONARYWDFLT
  5
12
330
A
100
AcDbDictionary
281
1
  3
Normal
350
13
100
AcDbDictionaryWithDefault
340
13
  0
ACDBPLACEHOLDER
  5
13
330
12
  0
DICTIONARY
  5
14
330
A
100
AcDbDictionary
281
1
  0
DICTIONARY
  5
15
330
A
100
AcDbDictionary
281
1
  0
DICTIONARY
  5
16
330
A
100
AcDbDictionary
281
1
  0
LAYOUT
  5
1A
330
D
100
AcDbPlotSettings
  1

  4
A3
  6

 40
7.5
 41
20.0
 42
7.5
 43
20.0
 44
420.0
 45
297.0
 46
0.0
 47
0.0
 48
0.0
 49
0.0
140
0.0
141
0.0
142
1.0
143
1.0
 70
1024
 72
1
 73
0
 74
5
  7

 75
16
 76
0
 77
2
 78
300
147
1.0
148
0.0
149
0.0
100
AcDbLayout
  1
Model
 70
1
 71
0
 10
0.0
 20
0.0
 11
420.0
 21
297.0
 12
0.0
 22
0.0
 32
0.0
 14
1e+20
 24
1e+20
 34
1e+20
 15
-1e+20
 25
-1e+20
 35
-1e+20
146
0.0
 13
0.0
 23
0.0
 33
0.0
 16
1.0
 26
0.0
 36
0.0
 17
0.0
 27
1.0
 37
0.0
 76
1
330
17
  0
LAYOUT
  5
1E
330
D
100
AcDbPlotSettings
  1

  4
A3
  6

 40
7.5
 41
20.0
 42
7.5
 43
20.0
 44
420.0
 45
297.0
 46
0.0
 47
0.0
 48
0.0
 49
0.0
140
0.0
141
0.0
142
1.0
143
1.0
 70
0
 72
1
 73
0
 74
5
  7

 75
16
 76
0
 77
2
 78
300
147
1.0
148
0.0
149
0.0
100
AcDbLayout
  1
Layout1
 70
1
 71
1
 10
0.0
 20
0.0
 11
420.0
 21
297.0
 12
0.0
 22
0.0
 32
0.0
 14
1e+20
 24
1e+20
 34
1e+20
 15
-1e+20
 25
-1e+20
 35
-1e+20
146
0.0
 13
0.0
 23
0.0
 33
0.0
 16
1.0
 26
0.0
 36
0.0
 17
0.0
 27
1.0
 37
0.0
 76
1
330
1B
  0
MATERIAL
  5
1F
102
{ACAD_REACTORS
330
E
102
}
330
E
100
AcDbMaterial
  1
ByBlock
  2

 70
0
 40
1.0
 71
1
 41
1.0
 91
-1023410177
 42
1.0
 72
1
  3

 73
1
 74
1
 75
1
 44
0.5
 73
0
 45
1.0
 46
1.0
 77
1
  4

 78
1
 79
1
170
1
 48
1.0
171
1
  6

172
1
173
1
174
1
140
1.0
141
1.0
175
1
  7

176
1
177
1
178
1
143
1.0
179
1
  8

270
1
271
1
272
1
145
1.0
146
1.0
273
1
  9

274
1
275
1
276
1
 42
1.0
 72
1
  3

 73
1
 74
1
 75
1
 94
63
  0
MATERIAL
  5
20
102
{ACAD_REACTORS
330
E
102
}
330
E
100
AcDbMaterial
  1
ByLayer
  2

 70
0
 40
1.0
 71
1
 41
1.0
 91
-1023410177
 42
1.0
 72
1
  3

 73
1
 74
1
 75
1
 44
0.5
 73
0
 45
1.0
 46
1.0
 77
1
  4

 78
1
 79
1
170
1
 48
1.0
171
1
  6

172
1
173
1
174
1
140
1.0
141
1.0
175
1
  7

176
1
177
1
178
1
143
1.0
179
1
  8

270
1
271
1
272
1
145
1.0
146
1.0
273
1
  9

274
1
275
1
276
1
 42
1.0
 72
1
  3

 73
1
 74
1
 75
1
 94
63
  0
MATERIAL
  5
21
102
{ACAD_REACTORS
330
E
102
}
330
E
100
AcDbMaterial
  1
Global
  2

 70
0
 40
1.0
 71
1
 41
1.0
 91
-1023410177
 42
1.0
 72
1
  3

 73
1
 74
1
 75
1
 44
0.5
 73
0
 45
1.0
 46
1.0
 77
1
  4

 78
1
 79
1
170
1
 48
1.0
171
1
  6

172
1
173
1
174
1
140
1.0
141
1.0
175
1
  7

176
1
177
1
178
1
143
1.0
179
1
  8

270
1
271
1
272
1
145
1.0
146
1.0
273
1
  9

274
1
275
1
276
1
 42
1.0
 72
1
  3

 73
1
 74
1
 75
1
 94
63
  0
MLINESTYLE
  5
22
102
{ACAD_REACTORS
330
10
102
}
330
10
100
AcDbMlineStyle
  2
Standard
 70
0
  3

 62
256
 51
90.0
 52
90.0
 71
2
 49
0.5
 62
256
  6
BYLAYER
 49
-0.5
 62
256
  6
BYLAYER
  0
MLEADERSTYLE
  5
2C
102
{ACAD_REACTORS
330
F
102
}
330
F
100
AcDbMLeaderStyle
179
2
170
2
171
1
172
0
 90
2
 40
0.0
 41
0.0
173
1
 91
-1056964608
 92
-2
290
1
 42
2.0
291
1
 43
8.0
  3
Standard
 44
4.0
300

342
29
174
1
175
1
176
0
178
1
 93
-1056964608
 45
4.0
292
0
297
0
 46
4.0
 94
-1056964608
 47
1.0
 49
1.0
140
1.0
294
1
141
0.0
177
0
142
1.0
295
0
296
0
143
3.75
271
0
272
9
273
9
  0
DICTIONARY
  5
2D
330
A
100
AcDbDictionary
280
1
281
1
  3
CREATED_BY_EZDXF
350
2E
  3
WRITTEN_BY_EZDXF
350
F9
  0
DICTIONARYVAR
  5
2E
330
2D
100
DictionaryVariables
280
0
  1
1.4.3 @ 2026-04-07T05:08:57.051000+00:00
  0
DICTIONARYVAR
  5
F9
330
2D
100
DictionaryVariables
280
0
  1
1.4.3 @ 2026-04-07T05:08:57.069450+00:00
  0
ENDSEC
  0
EOF
